<?xml version="1.0" encoding="UTF-8"?>
<!DOCTYPE svg PUBLIC "-//W3C//DTD SVG 1.1//EN" "http://www.w3.org/Graphics/SVG/1.1/DTD/svg11.dtd">
<svg xmlns="http://www.w3.org/2000/svg" version="1.1" width="955px" height="535px" style="shape-rendering:geometricPrecision; text-rendering:geometricPrecision; image-rendering:optimizeQuality; fill-rule:evenodd; clip-rule:evenodd" xmlns:xlink="http://www.w3.org/1999/xlink">
<g><path style="opacity:1" fill="#729239" d="M -0.5,-0.5 C 317.833,-0.5 636.167,-0.5 954.5,-0.5C 954.5,44.5 954.5,89.5 954.5,134.5C 952.435,134.517 950.435,134.85 948.5,135.5C 942.167,134.167 935.833,134.167 929.5,135.5C 926.833,135.5 924.167,135.5 921.5,135.5C 916.067,134.198 910.734,134.198 905.5,135.5C 905.167,135.5 904.833,135.5 904.5,135.5C 892.5,134.167 880.5,134.167 868.5,135.5C 866.593,134.331 864.593,134.331 862.5,135.5C 858.167,134.167 853.833,134.167 849.5,135.5C 849.167,135.5 848.833,135.5 848.5,135.5C 840.833,134.167 833.167,134.167 825.5,135.5C 825.167,136.833 824.833,136.833 824.5,135.5C 817.599,134.19 810.599,134.19 803.5,135.5C 803.167,135.5 802.833,135.5 802.5,135.5C 796.5,134.167 790.5,134.167 784.5,135.5C 783.5,135.5 782.5,135.5 781.5,135.5C 775.021,134.509 768.354,134.176 761.5,134.5C 761.5,130.5 761.5,126.5 761.5,122.5C 742.167,122.5 722.833,122.5 703.5,122.5C 703.5,126.5 703.5,130.5 703.5,134.5C 699.629,134.185 695.962,134.518 692.5,135.5C 688.399,134.209 684.399,134.209 680.5,135.5C 680.189,136.478 679.522,137.145 678.5,137.5C 677.158,135.995 675.492,135.328 673.5,135.5C 667.167,134.167 660.833,134.167 654.5,135.5C 653.833,135.5 653.167,135.5 652.5,135.5C 645.167,134.167 637.833,134.167 630.5,135.5C 630.167,135.5 629.833,135.5 629.5,135.5C 617.5,134.167 605.5,134.167 593.5,135.5C 591.81,135.758 589.81,135.758 587.5,135.5C 583.167,134.167 578.833,134.167 574.5,135.5C 574.167,135.5 573.833,135.5 573.5,135.5C 567.021,134.509 560.354,134.176 553.5,134.5C 549.881,135.244 546.215,135.577 542.5,135.5C 537.934,134.203 533.267,134.203 528.5,135.5C 528.167,135.5 527.833,135.5 527.5,135.5C 512.973,134.209 498.307,134.209 483.5,135.5C 482.5,135.5 481.5,135.5 480.5,135.5C 469.167,134.167 457.833,134.167 446.5,135.5C 444.5,135.5 442.5,135.5 440.5,135.5C 437.5,134.167 434.5,134.167 431.5,135.5C 431.167,135.5 430.833,135.5 430.5,135.5C 426.167,134.167 421.833,134.167 417.5,135.5C 413.399,134.209 409.399,134.209 405.5,135.5C 403.412,135.865 401.079,135.865 398.5,135.5C 392.167,134.167 385.833,134.167 379.5,135.5C 376.833,135.5 374.167,135.5 371.5,135.5C 366.067,134.198 360.734,134.198 355.5,135.5C 355.167,135.5 354.833,135.5 354.5,135.5C 341.167,134.167 327.833,134.167 314.5,135.5C 313.833,135.5 313.167,135.5 312.5,135.5C 309.038,134.518 305.371,134.185 301.5,134.5C 301.5,129.167 301.5,123.833 301.5,118.5C 282.167,118.5 262.833,118.5 243.5,118.5C 243.5,123.833 243.5,129.167 243.5,134.5C 231.796,134.23 220.129,134.564 208.5,135.5C 207.5,135.5 206.5,135.5 205.5,135.5C 196.167,134.167 186.833,134.167 177.5,135.5C 176.833,135.5 176.5,135.833 176.5,136.5C 170.909,135.213 165.075,134.546 159,134.5C 153.323,134.501 147.823,134.834 142.5,135.5C 141.534,138.125 140.534,138.125 139.5,135.5C 137.997,136.052 136.331,136.052 134.5,135.5C 134.5,130.167 134.5,124.833 134.5,119.5C 115.341,118.503 96.0072,118.17 76.5,118.5C 76.5,123.833 76.5,129.167 76.5,134.5C 63.9887,134.171 51.6554,134.505 39.5,135.5C 37.6061,138.187 36.9394,138.187 37.5,135.5C 33.1667,134.167 28.8333,134.167 24.5,135.5C 24.1667,135.5 23.8333,135.5 23.5,135.5C 17.021,134.509 10.3543,134.176 3.5,134.5C 2.04125,134.433 0.707917,134.766 -0.5,135.5C -0.5,90.1667 -0.5,44.8333 -0.5,-0.5 Z" data-terrain="land"/></g>
<g><path style="opacity:1" fill="#8a8142" d="M 134.5,119.5 C 115.5,119.5 96.5,119.5 77.5,119.5C 77.8205,124.695 77.4872,129.695 76.5,134.5C 76.5,129.167 76.5,123.833 76.5,118.5C 96.0072,118.17 115.341,118.503 134.5,119.5 Z" data-terrain="land"/></g>
<g><path style="opacity:1" fill="#a0734b" d="M 134.5,119.5 C 134.5,124.833 134.5,130.167 134.5,135.5C 134.5,137.5 134.5,139.5 134.5,141.5C 134.5,160.833 134.5,180.167 134.5,199.5C 134.5,202.167 134.5,204.833 134.5,207.5C 134.5,212.5 134.5,217.5 134.5,222.5C 115.167,222.5 95.8333,222.5 76.5,222.5C 76.5,217.5 76.5,212.5 76.5,207.5C 76.5,206.5 76.5,205.5 76.5,204.5C 77.4973,183.673 77.8306,162.673 77.5,141.5C 76.5,141.5 75.5,141.5 74.5,141.5C 74.5,139.833 74.5,138.167 74.5,136.5C 75.1667,135.833 75.8333,135.167 76.5,134.5C 77.4872,129.695 77.8205,124.695 77.5,119.5C 96.5,119.5 115.5,119.5 134.5,119.5 Z" data-terrain="land"/></g>
<g><path style="opacity:1" fill="#a0734a" d="M 301.5,134.5 C 301.5,134.833 301.5,135.167 301.5,135.5C 301.5,137.5 301.5,139.5 301.5,141.5C 301.5,160.833 301.5,180.167 301.5,199.5C 301.5,201.5 301.5,203.5 301.5,205.5C 301.5,211.167 301.5,216.833 301.5,222.5C 282.167,222.5 262.833,222.5 243.5,222.5C 243.5,217.5 243.5,212.5 243.5,207.5C 243.5,204.833 243.5,202.167 243.5,199.5C 243.83,179.993 243.497,160.659 242.5,141.5C 243.15,139.565 243.483,137.565 243.5,135.5C 243.5,135.167 243.5,134.833 243.5,134.5C 243.5,129.167 243.5,123.833 243.5,118.5C 262.833,118.5 282.167,118.5 301.5,118.5C 301.5,123.833 301.5,129.167 301.5,134.5 Z" data-terrain="land"/></g>
<g><path style="opacity:1" fill="#a0734b" d="M 761.5,134.5 C 761.5,135.167 761.5,135.833 761.5,136.5C 761.5,138.167 761.5,139.833 761.5,141.5C 761.5,160.833 761.5,180.167 761.5,199.5C 761.5,202.167 761.5,204.833 761.5,207.5C 761.5,213.833 761.5,220.167 761.5,226.5C 742.167,226.5 722.833,226.5 703.5,226.5C 703.5,220.167 703.5,213.833 703.5,207.5C 703.5,204.833 703.5,202.167 703.5,199.5C 703.83,179.993 703.497,160.659 702.5,141.5C 703.15,139.565 703.483,137.565 703.5,135.5C 703.5,135.167 703.5,134.833 703.5,134.5C 703.5,130.5 703.5,126.5 703.5,122.5C 722.833,122.5 742.167,122.5 761.5,122.5C 761.5,126.5 761.5,130.5 761.5,134.5 Z" data-terrain="land"/></g>
<g><path style="opacity:1" fill="#748656" d="M 3.5,134.5 C 10.3543,134.176 17.021,134.509 23.5,135.5C 17.319,135.606 11.319,135.606 5.5,135.5C 2.86348,138.184 2.19681,137.85 3.5,134.5 Z" data-terrain="land"/></g>
<g><path style="opacity:1" fill="#72854f" d="M 24.5,135.5 C 28.8333,134.167 33.1667,134.167 37.5,135.5C 35.4029,136.353 33.4029,136.353 31.5,135.5C 30.3279,135.919 29.3279,136.585 28.5,137.5C 27.4763,136.147 26.143,135.48 24.5,135.5 Z" data-terrain="land"/></g>
<g><path style="opacity:1" fill="#738451" d="M 39.5,135.5 C 51.6554,134.505 63.9887,134.171 76.5,134.5C 75.8333,135.167 75.1667,135.833 74.5,136.5C 73.1938,136.121 71.8605,135.788 70.5,135.5C 69.8076,136.025 69.3076,136.692 69,137.5C 67.3023,136.267 65.3023,135.6 63,135.5C 55.1448,135.625 47.3114,135.625 39.5,135.5 Z" data-terrain="land"/></g>
<g><path style="opacity:1" fill="#728453" d="M 142.5,135.5 C 147.823,134.834 153.323,134.501 159,134.5C 165.075,134.546 170.909,135.213 176.5,136.5C 176.44,137.043 176.107,137.376 175.5,137.5C 174.216,136.415 172.716,135.748 171,135.5C 164.446,135.555 157.946,135.555 151.5,135.5C 148.989,135.288 146.822,135.955 145,137.5C 144.292,136.619 143.458,135.953 142.5,135.5 Z" data-terrain="land"/></g>
<g><path style="opacity:1" fill="#728453" d="M 177.5,135.5 C 186.833,134.167 196.167,134.167 205.5,135.5C 201.566,135.021 197.899,135.688 194.5,137.5C 192.377,136.306 190.043,135.64 187.5,135.5C 184.006,136.083 180.672,136.083 177.5,135.5 Z" data-terrain="land"/></g>
<g><path style="opacity:1" fill="#718250" d="M 243.5,134.5 C 243.5,134.833 243.5,135.167 243.5,135.5C 242.265,135.721 241.265,136.388 240.5,137.5C 239.304,137.154 239.304,136.654 240.5,136C 239.5,135.833 238.5,135.667 237.5,135.5C 233.256,135.939 228.923,135.939 224.5,135.5C 224.167,139.5 223.833,139.5 223.5,135.5C 220.921,135.083 218.754,135.75 217,137.5C 216.612,136.572 215.945,135.905 215,135.5C 213.989,135.892 213.489,136.559 213.5,137.5C 211.958,136.253 210.458,136.253 209,137.5C 208.536,136.906 208.369,136.239 208.5,135.5C 220.129,134.564 231.796,134.23 243.5,134.5 Z" data-terrain="land"/></g>
<g><path style="opacity:1" fill="#70824d" d="M 301.5,135.5 C 301.5,135.167 301.5,134.833 301.5,134.5C 305.371,134.185 309.038,134.518 312.5,135.5C 310.403,136.353 308.403,136.353 306.5,135.5C 305.328,135.919 304.328,136.585 303.5,137.5C 302.818,136.757 302.151,136.091 301.5,135.5 Z" data-terrain="land"/></g>
<g><path style="opacity:1" fill="#768855" d="M 314.5,135.5 C 327.833,134.167 341.167,134.167 354.5,135.5C 351.187,136.802 348.187,136.802 345.5,135.5C 344.808,136.025 344.308,136.692 344,137.5C 342.302,136.267 340.302,135.6 338,135.5C 330.145,135.625 322.311,135.625 314.5,135.5 Z" data-terrain="land"/></g>
<g><path style="opacity:1" fill="#6c7f4b" d="M 355.5,135.5 C 360.734,134.198 366.067,134.198 371.5,135.5C 369.066,135.648 366.399,135.814 363.5,136C 362.773,137.399 362.273,138.899 362,140.5C 360.908,138.869 360.075,137.202 359.5,135.5C 358.167,135.5 356.833,135.5 355.5,135.5 Z" data-terrain="land"/></g>
<g><path style="opacity:1" fill="#72854d" d="M 379.5,135.5 C 385.833,134.167 392.167,134.167 398.5,135.5C 397.484,137.735 396.151,137.735 394.5,135.5C 389.496,135.584 384.496,135.584 379.5,135.5 Z" data-terrain="land"/></g>
<g><path style="opacity:1" fill="#758756" d="M 405.5,135.5 C 409.399,134.209 413.399,134.209 417.5,135.5C 416.534,138.125 415.534,138.125 414.5,135.5C 413.808,136.025 413.308,136.692 413,137.5C 410.894,135.709 408.394,135.042 405.5,135.5 Z" data-terrain="land"/></g>
<g><path style="opacity:1" fill="#748558" d="M 417.5,135.5 C 421.833,134.167 426.167,134.167 430.5,135.5C 427.482,135.335 424.482,135.502 421.5,136C 420.154,137.587 418.821,137.42 417.5,135.5 Z" data-terrain="land"/></g>
<g><path style="opacity:1" fill="#758856" d="M 440.5,135.5 C 436.922,136.029 433.922,136.029 431.5,135.5C 434.5,134.167 437.5,134.167 440.5,135.5 Z" data-terrain="land"/></g>
<g><path style="opacity:1" fill="#728354" d="M 480.5,135.5 C 476.566,135.021 472.899,135.688 469.5,137.5C 468.784,136.689 467.95,136.022 467,135.5C 464.994,136.082 462.827,136.082 460.5,135.5C 458.68,135.649 457.18,136.316 456,137.5C 455.481,136.484 454.647,135.818 453.5,135.5C 451.94,136.607 450.44,136.607 449,135.5C 448.055,135.905 447.388,136.572 447,137.5C 446.536,136.906 446.369,136.239 446.5,135.5C 457.833,134.167 469.167,134.167 480.5,135.5 Z" data-terrain="land"/></g>
<g><path style="opacity:1" fill="#708250" d="M 527.5,135.5 C 524.166,135.786 521,135.786 518,135.5C 517.05,136.022 516.216,136.689 515.5,137.5C 514.304,137.154 514.304,136.654 515.5,136C 514.5,135.833 513.5,135.667 512.5,135.5C 508.256,135.939 503.923,135.939 499.5,135.5C 499.649,136.552 499.483,137.552 499,138.5C 498.333,137.167 497.667,137.167 497,138.5C 496.517,137.552 496.351,136.552 496.5,135.5C 494.176,135.995 492.009,135.995 490,135.5C 488.989,135.892 488.489,136.559 488.5,137.5C 486.958,136.253 485.458,136.253 484,137.5C 483.536,136.906 483.369,136.239 483.5,135.5C 498.307,134.209 512.973,134.209 527.5,135.5 Z" data-terrain="land"/></g>
<g><path style="opacity:1" fill="#74894a" d="M 542.5,135.5 C 537.833,136.833 533.167,136.833 528.5,135.5C 533.267,134.203 537.934,134.203 542.5,135.5 Z" data-terrain="land"/></g>
<g><path style="opacity:1" fill="#778958" d="M 553.5,134.5 C 560.354,134.176 567.021,134.509 573.5,135.5C 567.075,135.398 560.575,135.731 554,136.5C 553.536,135.906 553.369,135.239 553.5,134.5 Z" data-terrain="land"/></g>
<g><path style="opacity:1" fill="#72864c" d="M 574.5,135.5 C 578.833,134.167 583.167,134.167 587.5,135.5C 585.403,136.353 583.403,136.353 581.5,135.5C 580.328,135.919 579.328,136.585 578.5,137.5C 577.476,136.147 576.143,135.48 574.5,135.5 Z" data-terrain="land"/></g>
<g><path style="opacity:1" fill="#778856" d="M 593.5,135.5 C 605.5,134.167 617.5,134.167 629.5,135.5C 626.187,136.802 623.187,136.802 620.5,135.5C 619.808,136.025 619.308,136.692 619,137.5C 617.302,136.267 615.302,135.6 613,135.5C 606.645,135.856 600.145,135.856 593.5,135.5 Z" data-terrain="land"/></g>
<g><path style="opacity:1" fill="#72844f" d="M 630.5,135.5 C 637.833,134.167 645.167,134.167 652.5,135.5C 649.635,135.055 647.135,135.722 645,137.5C 643.82,136.316 642.32,135.649 640.5,135.5C 638.68,135.649 637.18,136.316 636,137.5C 634.599,135.808 632.766,135.141 630.5,135.5 Z" data-terrain="land"/></g>
<g><path style="opacity:1" fill="#6e834b" d="M 654.5,135.5 C 660.833,134.167 667.167,134.167 673.5,135.5C 672.484,137.735 671.151,137.735 669.5,135.5C 664.435,135.519 659.435,135.519 654.5,135.5 Z" data-terrain="land"/></g>
<g><path style="opacity:1" fill="#748654" d="M 680.5,135.5 C 684.399,134.209 688.399,134.209 692.5,135.5C 691.534,138.125 690.534,138.125 689.5,135.5C 686.681,135.742 683.681,135.742 680.5,135.5 Z" data-terrain="land"/></g>
<g><path style="opacity:1" fill="#6e7b4e" d="M 692.5,135.5 C 695.962,134.518 699.629,134.185 703.5,134.5C 703.5,134.833 703.5,135.167 703.5,135.5C 700.315,135.02 697.481,135.686 695,137.5C 694.292,136.619 693.458,135.953 692.5,135.5 Z" data-terrain="land"/></g>
<g><path style="opacity:1" fill="#6e7e51" d="M 761.5,134.5 C 768.354,134.176 775.021,134.509 781.5,135.5C 776.882,134.309 774.382,135.975 774,140.5C 772.908,138.869 772.075,137.202 771.5,135.5C 769.176,135.995 767.009,135.995 765,135.5C 763.954,137.195 762.787,137.528 761.5,136.5C 761.5,135.833 761.5,135.167 761.5,134.5 Z" data-terrain="land"/></g>
<g><path style="opacity:1" fill="#6c8049" d="M 784.5,135.5 C 790.5,134.167 796.5,134.167 802.5,135.5C 799.166,135.786 796,135.786 793,135.5C 792.05,136.022 791.216,136.689 790.5,137.5C 789.304,137.154 789.304,136.654 790.5,136C 788.527,135.505 786.527,135.338 784.5,135.5 Z" data-terrain="land"/></g>
<g><path style="opacity:1" fill="#748656" d="M 825.5,135.5 C 833.167,134.167 840.833,134.167 848.5,135.5C 840.826,135.547 833.159,135.547 825.5,135.5 Z" data-terrain="land"/></g>
<g><path style="opacity:1" fill="#71834e" d="M 849.5,135.5 C 853.833,134.167 858.167,134.167 862.5,135.5C 860.403,136.353 858.403,136.353 856.5,135.5C 855.328,135.919 854.328,136.585 853.5,137.5C 852.476,136.147 851.143,135.48 849.5,135.5 Z" data-terrain="land"/></g>
<g><path style="opacity:1" fill="#84888c" d="M 3.5,134.5 C 2.19681,137.85 2.86348,138.184 5.5,135.5C 11.319,135.606 17.319,135.606 23.5,135.5C 23.8333,135.5 24.1667,135.5 24.5,135.5C 26.143,135.48 27.4763,136.147 28.5,137.5C 29.3279,136.585 30.3279,135.919 31.5,135.5C 33.4029,136.353 35.4029,136.353 37.5,135.5C 36.9394,138.187 37.6061,138.187 39.5,135.5C 47.3114,135.625 55.1448,135.625 63,135.5C 65.3023,135.6 67.3023,136.267 69,137.5C 69.3076,136.692 69.8076,136.025 70.5,135.5C 71.8605,135.788 73.1938,136.121 74.5,136.5C 74.5,138.167 74.5,139.833 74.5,141.5C 49.5,141.5 24.5,141.5 -0.5,141.5C -0.5,139.5 -0.5,137.5 -0.5,135.5C 0.707917,134.766 2.04125,134.433 3.5,134.5 Z" data-terrain="land"/></g>
<g><path style="opacity:1" fill="#83868b" d="M 134.5,135.5 C 136.331,136.052 137.997,136.052 139.5,135.5C 140.534,138.125 141.534,138.125 142.5,135.5C 143.458,135.953 144.292,136.619 145,137.5C 146.822,135.955 148.989,135.288 151.5,135.5C 157.946,135.555 164.446,135.555 171,135.5C 172.716,135.748 174.216,136.415 175.5,137.5C 176.107,137.376 176.44,137.043 176.5,136.5C 176.5,135.833 176.833,135.5 177.5,135.5C 180.672,136.083 184.006,136.083 187.5,135.5C 190.043,135.64 192.377,136.306 194.5,137.5C 197.899,135.688 201.566,135.021 205.5,135.5C 206.5,135.5 207.5,135.5 208.5,135.5C 208.369,136.239 208.536,136.906 209,137.5C 210.458,136.253 211.958,136.253 213.5,137.5C 213.489,136.559 213.989,135.892 215,135.5C 215.945,135.905 216.612,136.572 217,137.5C 218.754,135.75 220.921,135.083 223.5,135.5C 223.833,139.5 224.167,139.5 224.5,135.5C 228.923,135.939 233.256,135.939 237.5,135.5C 238.5,135.667 239.5,135.833 240.5,136C 239.304,136.654 239.304,137.154 240.5,137.5C 241.265,136.388 242.265,135.721 243.5,135.5C 243.483,137.565 243.15,139.565 242.5,141.5C 206.5,141.5 170.5,141.5 134.5,141.5C 134.5,139.5 134.5,137.5 134.5,135.5 Z" data-terrain="land"/></g>
<g><path style="opacity:1" fill="#878b8e" d="M 553.5,134.5 C 553.369,135.239 553.536,135.906 554,136.5C 560.575,135.731 567.075,135.398 573.5,135.5C 573.833,135.5 574.167,135.5 574.5,135.5C 576.143,135.48 577.476,136.147 578.5,137.5C 579.328,136.585 580.328,135.919 581.5,135.5C 583.403,136.353 585.403,136.353 587.5,135.5C 589.81,135.758 591.81,135.758 593.5,135.5C 600.145,135.856 606.645,135.856 613,135.5C 615.302,135.6 617.302,136.267 619,137.5C 619.308,136.692 619.808,136.025 620.5,135.5C 623.187,136.802 626.187,136.802 629.5,135.5C 629.833,135.5 630.167,135.5 630.5,135.5C 632.766,135.141 634.599,135.808 636,137.5C 637.18,136.316 638.68,135.649 640.5,135.5C 642.32,135.649 643.82,136.316 645,137.5C 647.135,135.722 649.635,135.055 652.5,135.5C 653.167,135.5 653.833,135.5 654.5,135.5C 659.435,135.519 664.435,135.519 669.5,135.5C 671.151,137.735 672.484,137.735 673.5,135.5C 675.492,135.328 677.158,135.995 678.5,137.5C 679.522,137.145 680.189,136.478 680.5,135.5C 683.681,135.742 686.681,135.742 689.5,135.5C 690.534,138.125 691.534,138.125 692.5,135.5C 693.458,135.953 694.292,136.619 695,137.5C 697.481,135.686 700.315,135.02 703.5,135.5C 703.483,137.565 703.15,139.565 702.5,141.5C 568.833,141.5 435.167,141.5 301.5,141.5C 301.5,139.5 301.5,137.5 301.5,135.5C 302.151,136.091 302.818,136.757 303.5,137.5C 304.328,136.585 305.328,135.919 306.5,135.5C 308.403,136.353 310.403,136.353 312.5,135.5C 313.167,135.5 313.833,135.5 314.5,135.5C 322.311,135.625 330.145,135.625 338,135.5C 340.302,135.6 342.302,136.267 344,137.5C 344.308,136.692 344.808,136.025 345.5,135.5C 348.187,136.802 351.187,136.802 354.5,135.5C 354.833,135.5 355.167,135.5 355.5,135.5C 356.833,135.5 358.167,135.5 359.5,135.5C 360.075,137.202 360.908,138.869 362,140.5C 362.273,138.899 362.773,137.399 363.5,136C 366.399,135.814 369.066,135.648 371.5,135.5C 374.167,135.5 376.833,135.5 379.5,135.5C 384.496,135.584 389.496,135.584 394.5,135.5C 396.151,137.735 397.484,137.735 398.5,135.5C 401.079,135.865 403.412,135.865 405.5,135.5C 408.394,135.042 410.894,135.709 413,137.5C 413.308,136.692 413.808,136.025 414.5,135.5C 415.534,138.125 416.534,138.125 417.5,135.5C 418.821,137.42 420.154,137.587 421.5,136C 424.482,135.502 427.482,135.335 430.5,135.5C 430.833,135.5 431.167,135.5 431.5,135.5C 433.922,136.029 436.922,136.029 440.5,135.5C 442.5,135.5 444.5,135.5 446.5,135.5C 446.369,136.239 446.536,136.906 447,137.5C 447.388,136.572 448.055,135.905 449,135.5C 450.44,136.607 451.94,136.607 453.5,135.5C 454.647,135.818 455.481,136.484 456,137.5C 457.18,136.316 458.68,135.649 460.5,135.5C 462.827,136.082 464.994,136.082 467,135.5C 467.95,136.022 468.784,136.689 469.5,137.5C 472.899,135.688 476.566,135.021 480.5,135.5C 481.5,135.5 482.5,135.5 483.5,135.5C 483.369,136.239 483.536,136.906 484,137.5C 485.458,136.253 486.958,136.253 488.5,137.5C 488.489,136.559 488.989,135.892 490,135.5C 492.009,135.995 494.176,135.995 496.5,135.5C 496.351,136.552 496.517,137.552 497,138.5C 497.667,137.167 498.333,137.167 499,138.5C 499.483,137.552 499.649,136.552 499.5,135.5C 503.923,135.939 508.256,135.939 512.5,135.5C 513.5,135.667 514.5,135.833 515.5,136C 514.304,136.654 514.304,137.154 515.5,137.5C 516.216,136.689 517.05,136.022 518,135.5C 521,135.786 524.166,135.786 527.5,135.5C 527.833,135.5 528.167,135.5 528.5,135.5C 533.167,136.833 537.833,136.833 542.5,135.5C 546.215,135.577 549.881,135.244 553.5,134.5 Z" data-terrain="land"/></g>
<g><path style="opacity:1" fill="#70824d" d="M 824.5,135.5 C 821.048,135.82 817.715,135.82 814.5,135.5C 813.459,137.991 812.626,137.991 812,135.5C 811.311,136.357 810.478,137.023 809.5,137.5C 808.304,137.154 808.304,136.654 809.5,136C 807.276,135.96 805.276,135.794 803.5,135.5C 810.599,134.19 817.599,134.19 824.5,135.5 Z" data-terrain="land"/></g>
<g><path style="opacity:1" fill="#828488" d="M 868.5,135.5 C 880.46,135.838 892.46,135.838 904.5,135.5C 904.833,135.5 905.167,135.5 905.5,135.5C 907.766,135.141 909.599,135.808 911,137.5C 911.388,136.572 912.055,135.905 913,135.5C 914.44,136.607 915.94,136.607 917.5,135.5C 918.672,135.919 919.672,136.585 920.5,137.5C 921.298,137.043 921.631,136.376 921.5,135.5C 924.167,135.5 926.833,135.5 929.5,135.5C 934.481,135.505 939.481,135.505 944.5,135.5C 946.151,137.735 947.484,137.735 948.5,135.5C 950.435,134.85 952.435,134.517 954.5,134.5C 954.5,136.833 954.5,139.167 954.5,141.5C 890.167,141.5 825.833,141.5 761.5,141.5C 761.5,139.833 761.5,138.167 761.5,136.5C 762.787,137.528 763.954,137.195 765,135.5C 767.009,135.995 769.176,135.995 771.5,135.5C 772.075,137.202 772.908,138.869 774,140.5C 774.382,135.975 776.882,134.309 781.5,135.5C 782.5,135.5 783.5,135.5 784.5,135.5C 786.527,135.338 788.527,135.505 790.5,136C 789.304,136.654 789.304,137.154 790.5,137.5C 791.216,136.689 792.05,136.022 793,135.5C 796,135.786 799.166,135.786 802.5,135.5C 802.833,135.5 803.167,135.5 803.5,135.5C 805.276,135.794 807.276,135.96 809.5,136C 808.304,136.654 808.304,137.154 809.5,137.5C 810.478,137.023 811.311,136.357 812,135.5C 812.626,137.991 813.459,137.991 814.5,135.5C 817.715,135.82 821.048,135.82 824.5,135.5C 824.833,136.833 825.167,136.833 825.5,135.5C 833.159,135.547 840.826,135.547 848.5,135.5C 848.833,135.5 849.167,135.5 849.5,135.5C 851.143,135.48 852.476,136.147 853.5,137.5C 854.328,136.585 855.328,135.919 856.5,135.5C 858.403,136.353 860.403,136.353 862.5,135.5C 864.593,134.331 866.593,134.331 868.5,135.5 Z" data-terrain="land"/></g>
<g><path style="opacity:1" fill="#6c8046" d="M 929.5,135.5 C 935.833,134.167 942.167,134.167 948.5,135.5C 947.484,137.735 946.151,137.735 944.5,135.5C 939.481,135.505 934.481,135.505 929.5,135.5 Z" data-terrain="land"/></g>
<g><path style="opacity:1" fill="#6f814e" d="M 905.5,135.5 C 910.734,134.198 916.067,134.198 921.5,135.5C 921.631,136.376 921.298,137.043 920.5,137.5C 919.672,136.585 918.672,135.919 917.5,135.5C 915.94,136.607 914.44,136.607 913,135.5C 912.055,135.905 911.388,136.572 911,137.5C 909.599,135.808 907.766,135.141 905.5,135.5 Z" data-terrain="land"/></g>
<g><path style="opacity:1" fill="#758755" d="M 868.5,135.5 C 880.5,134.167 892.5,134.167 904.5,135.5C 892.46,135.838 880.46,135.838 868.5,135.5 Z" data-terrain="land"/></g>
<g><path style="opacity:1" fill="#72a8c1" d="M -0.5,141.5 C 24.5,141.5 49.5,141.5 74.5,141.5C 76.4683,160.599 77.135,179.932 76.5,199.5C 50.8333,199.5 25.1667,199.5 -0.5,199.5C -0.5,180.167 -0.5,160.833 -0.5,141.5 Z" data-terrain="water"/></g>
<g><path style="opacity:1" fill="#8d897f" d="M 74.5,141.5 C 75.5,141.5 76.5,141.5 77.5,141.5C 77.8306,162.673 77.4973,183.673 76.5,204.5C 76.5,202.833 76.5,201.167 76.5,199.5C 77.135,179.932 76.4683,160.599 74.5,141.5 Z" data-terrain="land"/></g>
<g><path style="opacity:1" fill="#72a7c1" d="M 134.5,141.5 C 170.5,141.5 206.5,141.5 242.5,141.5C 243.497,160.659 243.83,179.993 243.5,199.5C 207.167,199.5 170.833,199.5 134.5,199.5C 134.5,180.167 134.5,160.833 134.5,141.5 Z" data-terrain="water"/></g>
<g><path style="opacity:1" fill="#72a8c1" d="M 301.5,141.5 C 435.167,141.5 568.833,141.5 702.5,141.5C 703.497,160.659 703.83,179.993 703.5,199.5C 620.833,199.5 538.167,199.5 455.5,199.5C 455.5,211.833 455.5,224.167 455.5,236.5C 440.167,236.5 424.833,236.5 409.5,236.5C 409.5,224.167 409.5,211.833 409.5,199.5C 373.5,199.5 337.5,199.5 301.5,199.5C 301.5,180.167 301.5,160.833 301.5,141.5 Z" data-terrain="water"/></g>
<g><path style="opacity:1" fill="#72a7c1" d="M 761.5,141.5 C 825.833,141.5 890.167,141.5 954.5,141.5C 954.5,160.833 954.5,180.167 954.5,199.5C 890.167,199.5 825.833,199.5 761.5,199.5C 761.5,180.167 761.5,160.833 761.5,141.5 Z" data-terrain="water"/></g>
<g><path style="opacity:1" fill="#838889" d="M -0.5,199.5 C 25.1667,199.5 50.8333,199.5 76.5,199.5C 76.5,201.167 76.5,202.833 76.5,204.5C 76.5,205.5 76.5,206.5 76.5,207.5C 73.9556,207.896 71.7889,207.229 70,205.5C 67.301,208.264 65.6344,207.597 65,203.5C 64.51,204.793 64.3433,206.127 64.5,207.5C 62.5,207.5 60.5,207.5 58.5,207.5C 58.5875,204.402 58.0875,204.068 57,206.5C 56.6667,205.5 56.3333,204.5 56,203.5C 55.79,205.058 55.29,206.391 54.5,207.5C 53.9101,206.234 53.4101,204.901 53,203.5C 52.3333,204.833 51.6667,204.833 51,203.5C 49.6667,204.167 48.6667,205.167 48,206.5C 47.3333,205.167 46.6667,205.167 46,206.5C 45.1932,202.551 44.6932,202.551 44.5,206.5C 43.5,206.5 42.5,206.5 41.5,206.5C 41.6495,205.448 41.4828,204.448 41,203.5C 40.5,204.667 39.6667,205.5 38.5,206C 38.8333,206.333 39.1667,206.667 39.5,207C 36.1658,208.212 33.6658,207.379 32,204.5C 31.5172,205.448 31.3505,206.448 31.5,207.5C 29.1667,207.5 26.8333,207.5 24.5,207.5C 24.6495,206.448 24.4828,205.448 24,204.5C 22.1394,205.764 20.1394,206.764 18,207.5C 15.134,206.966 12.134,206.966 9,207.5C 7.28937,207.561 5.95603,206.894 5,205.5C 3.59928,207.192 1.76595,207.859 -0.5,207.5C -0.5,204.833 -0.5,202.167 -0.5,199.5 Z" data-terrain="land"/></g>
<g><path style="opacity:1" fill="#828589" d="M 134.5,199.5 C 170.833,199.5 207.167,199.5 243.5,199.5C 243.5,202.167 243.5,204.833 243.5,207.5C 237.649,207.049 231.649,207.049 225.5,207.5C 225.5,206.5 225.5,205.5 225.5,204.5C 222.539,204.464 220.206,205.464 218.5,207.5C 216.167,207.5 213.833,207.5 211.5,207.5C 211.539,205.641 210.706,204.308 209,203.5C 208.431,207.361 207.598,207.361 206.5,203.5C 205.571,204.689 205.238,206.022 205.5,207.5C 203.833,207.5 202.167,207.5 200.5,207.5C 200.66,205.801 200.494,204.134 200,202.5C 199.768,203.737 199.268,204.737 198.5,205.5C 197.175,204.047 196.342,204.381 196,206.5C 194.484,203.949 193.651,204.282 193.5,207.5C 191.61,206.82 189.61,206.653 187.5,207C 186.126,203.59 185.459,203.757 185.5,207.5C 183.549,207.773 182.049,207.107 181,205.5C 179.246,207.25 177.079,207.917 174.5,207.5C 174.649,206.448 174.483,205.448 174,204.5C 172.061,208.307 170.227,208.307 168.5,204.5C 167.808,205.025 167.308,205.692 167,206.5C 166.601,206.272 166.435,205.938 166.5,205.5C 164.978,205.21 163.478,205.21 162,205.5C 161.667,204.5 161.333,203.5 161,202.5C 160.516,204.178 159.683,204.844 158.5,204.5C 157.849,203.909 157.182,203.243 156.5,202.5C 155.138,204.012 154.804,205.512 155.5,207C 152.166,208.212 149.666,207.379 148,204.5C 147.517,205.448 147.351,206.448 147.5,207.5C 143.97,208.011 140.804,207.344 138,205.5C 137.184,206.823 136.017,207.489 134.5,207.5C 134.5,204.833 134.5,202.167 134.5,199.5 Z" data-terrain="land"/></g>
<g><path style="opacity:1" fill="#888d8e" d="M 301.5,199.5 C 337.5,199.5 373.5,199.5 409.5,199.5C 409.5,211.833 409.5,224.167 409.5,236.5C 424.833,236.5 440.167,236.5 455.5,236.5C 455.5,224.167 455.5,211.833 455.5,199.5C 538.167,199.5 620.833,199.5 703.5,199.5C 703.5,202.167 703.5,204.833 703.5,207.5C 700.494,206.895 697.327,206.895 694,207.5C 691.698,207.4 689.698,206.733 688,205.5C 686.667,206.167 685.333,206.833 684,207.5C 680.983,207.219 677.817,207.219 674.5,207.5C 674.798,204.664 674.131,204.164 672.5,206C 673.712,207.107 673.379,207.607 671.5,207.5C 669.999,202.362 668.999,202.362 668.5,207.5C 666.833,207.5 665.167,207.5 663.5,207.5C 663.503,202.408 662.67,202.408 661,207.5C 660.581,203.148 659.914,202.815 659,206.5C 658.692,205.692 658.192,205.025 657.5,204.5C 656.833,205.5 656.167,206.5 655.5,207.5C 653.674,207.08 651.674,207.08 649.5,207.5C 649.167,202.167 648.833,202.167 648.5,207.5C 647.167,207.5 645.833,207.5 644.5,207.5C 644.167,203.5 643.833,203.5 643.5,207.5C 641.54,206.862 639.707,206.862 638,207.5C 637.667,206.167 637.333,204.833 637,203.5C 634.906,208.492 633.073,208.492 631.5,203.5C 630.749,204.376 630.249,205.376 630,206.5C 629.692,205.692 629.192,205.025 628.5,204.5C 627.833,205.5 627.167,206.5 626.5,207.5C 625.575,206.359 624.741,206.359 624,207.5C 622.041,206.252 620.541,204.585 619.5,202.5C 618.73,206.503 616.396,208.003 612.5,207C 611.126,203.59 610.459,203.757 610.5,207.5C 608.403,206.647 606.403,206.647 604.5,207.5C 602.912,206.99 601.745,205.99 601,204.5C 599.537,206.885 597.371,207.885 594.5,207.5C 588.85,207.24 583.183,207.24 577.5,207.5C 574.957,207.36 572.623,206.694 570.5,205.5C 566.759,207.331 562.759,207.997 558.5,207.5C 558.719,206.325 558.386,205.325 557.5,204.5C 556.289,205.274 556.289,206.107 557.5,207C 556.552,207.483 555.552,207.649 554.5,207.5C 554.167,203.5 553.833,203.5 553.5,207.5C 551.143,207.663 548.81,207.497 546.5,207C 547.554,205.612 547.72,204.112 547,202.5C 546.59,203.901 546.09,205.234 545.5,206.5C 544.778,206.082 544.278,205.416 544,204.5C 543.667,204.833 543.333,205.167 543,205.5C 542.667,204.5 542.333,203.5 542,202.5C 541.392,204.154 540.892,205.821 540.5,207.5C 537.635,207.945 535.135,207.278 533,205.5C 531.951,207.107 530.451,207.773 528.5,207.5C 528.167,202.167 527.833,202.167 527.5,207.5C 525.5,207.5 523.5,207.5 521.5,207.5C 521.587,204.402 521.087,204.068 520,206.5C 519.086,202.815 518.419,203.148 518,207.5C 517.617,206.944 517.117,206.611 516.5,206.5C 516.649,205.448 516.483,204.448 516,203.5C 514.667,204.833 513.333,204.833 512,203.5C 511.536,204.094 511.369,204.761 511.5,205.5C 510.778,205.918 510.278,206.584 510,207.5C 508.883,206.051 508.216,204.384 508,202.5C 507.667,203.833 507.333,205.167 507,206.5C 505.903,204.947 504.57,203.614 503,202.5C 502.383,203.449 502.549,204.282 503.5,205C 501.385,205.557 499.385,206.391 497.5,207.5C 496.029,206.619 495.196,205.286 495,203.5C 494.51,204.793 494.343,206.127 494.5,207.5C 492.021,206.928 489.687,206.928 487.5,207.5C 485.971,207.471 484.804,206.804 484,205.5C 480.598,206.789 476.931,207.456 473,207.5C 469.069,207.456 465.402,206.789 462,205.5C 461.585,207.291 460.585,208.624 459,209.5C 458.501,214.489 458.334,219.489 458.5,224.5C 458.5,228.5 458.5,232.5 458.5,236.5C 440.307,237.8 421.973,237.8 403.5,236.5C 403.5,226.833 403.5,217.167 403.5,207.5C 396.426,207.102 389.426,207.102 382.5,207.5C 380.626,207.61 379.126,206.944 378,205.5C 376.333,208.167 374.667,208.167 373,205.5C 372.667,206.167 372.333,206.833 372,207.5C 371.751,206.376 371.251,205.376 370.5,204.5C 368.999,205.752 367.332,206.752 365.5,207.5C 364.893,207.376 364.56,207.043 364.5,206.5C 364.217,205.711 363.717,205.044 363,204.5C 361.698,205.085 360.531,205.751 359.5,206.5C 356.255,208.288 353.755,207.622 352,204.5C 351.517,205.448 351.351,206.448 351.5,207.5C 341.833,207.5 332.167,207.5 322.5,207.5C 322.167,203.5 321.833,203.5 321.5,207.5C 319.088,207.669 316.921,207.003 315,205.5C 312.994,207.002 311.328,206.669 310,204.5C 309.418,207.668 308.418,208.001 307,205.5C 305.19,208.018 303.357,208.018 301.5,205.5C 301.5,203.5 301.5,201.5 301.5,199.5 Z" data-terrain="land"/></g>
<g><path style="opacity:1" fill="#84898b" d="M 761.5,199.5 C 825.833,199.5 890.167,199.5 954.5,199.5C 954.5,202.167 954.5,204.833 954.5,207.5C 951.921,207.917 949.754,207.25 948,205.5C 946.093,206.93 943.926,207.596 941.5,207.5C 939.014,206.879 936.681,206.879 934.5,207.5C 932.971,207.471 931.804,206.804 931,205.5C 927.598,206.789 923.931,207.456 920,207.5C 916.069,207.456 912.402,206.789 909,205.5C 907.087,207.956 905.421,207.622 904,204.5C 903.383,205.449 903.549,206.282 904.5,207C 903.552,207.483 902.552,207.649 901.5,207.5C 901.167,203.5 900.833,203.5 900.5,207.5C 896.169,208.549 894.003,206.882 894,202.5C 893.768,203.737 893.268,204.737 892.5,205.5C 891.603,204.402 890.77,204.402 890,205.5C 889.667,204.5 889.333,203.5 889,202.5C 887.991,204.025 887.491,205.692 887.5,207.5C 884.635,207.945 882.135,207.278 880,205.5C 877.301,208.264 875.634,207.597 875,203.5C 874.51,204.793 874.343,206.127 874.5,207.5C 872.5,207.5 870.5,207.5 868.5,207.5C 868.587,204.402 868.087,204.068 867,206.5C 866.667,205.5 866.333,204.5 866,203.5C 865.917,205.506 865.417,206.506 864.5,206.5C 864.013,205.527 863.513,204.527 863,203.5C 862.333,204.833 861.667,204.833 861,203.5C 860.333,206.167 859.667,206.167 859,203.5C 858.302,204.691 857.469,205.691 856.5,206.5C 855.732,205.737 855.232,204.737 855,203.5C 854.667,204.5 854.333,205.5 854,206.5C 853,205.5 852,204.5 851,203.5C 850.5,204.667 849.667,205.5 848.5,206C 848.833,206.333 849.167,206.667 849.5,207C 847.687,206.954 846.021,207.12 844.5,207.5C 843.416,206.335 842.583,205.002 842,203.5C 841.781,204.938 841.281,206.271 840.5,207.5C 839.808,206.975 839.308,206.308 839,205.5C 837.951,207.107 836.451,207.773 834.5,207.5C 834.65,204.074 833.484,203.741 831,206.5C 828.827,203.723 828.327,203.89 829.5,207C 828.552,207.483 827.552,207.649 826.5,207.5C 826.443,202.318 825.776,202.318 824.5,207.5C 821.998,207.379 819.332,207.212 816.5,207C 815.282,205.584 813.949,205.751 812.5,207.5C 811.353,207.182 810.519,206.516 810,205.5C 808.82,206.684 807.32,207.351 805.5,207.5C 803.68,207.351 802.18,206.684 801,205.5C 800.667,206.167 800.333,206.833 800,207.5C 797.048,207.386 794.048,207.386 791,207.5C 790.055,207.095 789.388,206.428 789,205.5C 788.29,206.973 787.124,207.64 785.5,207.5C 785.167,203.5 784.833,203.5 784.5,207.5C 782.585,207.784 780.919,207.451 779.5,206.5C 778.91,205.234 778.41,203.901 778,202.5C 776.565,206.769 774.899,207.102 773,203.5C 772.51,204.793 772.343,206.127 772.5,207.5C 771.25,207.423 770.417,206.756 770,205.5C 769.481,206.516 768.647,207.182 767.5,207.5C 765.597,206.647 763.597,206.647 761.5,207.5C 761.5,204.833 761.5,202.167 761.5,199.5 Z" data-terrain="land"/></g>
<g><path style="opacity:1" fill="#739239" d="M 158.5,204.5 C 158.75,205.922 159.583,206.922 161,207.5C 162.989,207.951 164.823,207.285 166.5,205.5C 166.435,205.938 166.601,206.272 167,206.5C 167.308,205.692 167.808,205.025 168.5,204.5C 170.227,208.307 172.061,208.307 174,204.5C 174.483,205.448 174.649,206.448 174.5,207.5C 177.079,207.917 179.246,207.25 181,205.5C 182.049,207.107 183.549,207.773 185.5,207.5C 185.459,203.757 186.126,203.59 187.5,207C 189.61,206.653 191.61,206.82 193.5,207.5C 195.781,207.923 197.448,207.256 198.5,205.5C 199.268,204.737 199.768,203.737 200,202.5C 200.494,204.134 200.66,205.801 200.5,207.5C 202.167,207.5 203.833,207.5 205.5,207.5C 207.5,207.5 209.5,207.5 211.5,207.5C 213.833,207.5 216.167,207.5 218.5,207.5C 220.833,207.5 223.167,207.5 225.5,207.5C 231.649,207.049 237.649,207.049 243.5,207.5C 243.5,212.5 243.5,217.5 243.5,222.5C 262.833,222.5 282.167,222.5 301.5,222.5C 301.5,216.833 301.5,211.167 301.5,205.5C 303.357,208.018 305.19,208.018 307,205.5C 308.418,208.001 309.418,207.668 310,204.5C 311.328,206.669 312.994,207.002 315,205.5C 316.921,207.003 319.088,207.669 321.5,207.5C 321.833,203.5 322.167,203.5 322.5,207.5C 332.167,207.5 341.833,207.5 351.5,207.5C 351.351,206.448 351.517,205.448 352,204.5C 353.755,207.622 356.255,208.288 359.5,206.5C 361.167,206.5 362.833,206.5 364.5,206.5C 364.56,207.043 364.893,207.376 365.5,207.5C 367.332,206.752 368.999,205.752 370.5,204.5C 371.251,205.376 371.751,206.376 372,207.5C 372.333,206.833 372.667,206.167 373,205.5C 374.667,208.167 376.333,208.167 378,205.5C 379.126,206.944 380.626,207.61 382.5,207.5C 389.426,207.102 396.426,207.102 403.5,207.5C 403.5,217.167 403.5,226.833 403.5,236.5C 395.167,236.5 386.833,236.5 378.5,236.5C 378.17,256.007 378.503,275.341 379.5,294.5C 387.903,293.866 395.903,294.533 403.5,296.5C 403.977,306.307 403.977,316.307 403.5,326.5C 369.833,326.5 336.167,326.5 302.5,326.5C 301.511,321.025 301.178,315.358 301.5,309.5C 282.167,309.5 262.833,309.5 243.5,309.5C 243.5,315.167 243.5,320.833 243.5,326.5C 242.5,326.5 241.5,326.5 240.5,326.5C 205.833,326.5 171.167,326.5 136.5,326.5C 134.55,321.265 133.883,315.598 134.5,309.5C 115.167,309.5 95.8333,309.5 76.5,309.5C 76.5,315.167 76.5,320.833 76.5,326.5C 75.5,326.5 74.5,326.5 73.5,326.5C 48.8333,326.5 24.1667,326.5 -0.5,326.5C -0.5,286.833 -0.5,247.167 -0.5,207.5C 1.76595,207.859 3.59928,207.192 5,205.5C 5.95603,206.894 7.28937,207.561 9,207.5C 12.134,206.966 15.134,206.966 18,207.5C 20.1394,206.764 22.1394,205.764 24,204.5C 24.4828,205.448 24.6495,206.448 24.5,207.5C 26.8333,207.5 29.1667,207.5 31.5,207.5C 31.3505,206.448 31.5172,205.448 32,204.5C 33.6658,207.379 36.1658,208.212 39.5,207C 39.1667,206.667 38.8333,206.333 38.5,206C 39.6667,205.5 40.5,204.667 41,203.5C 41.4828,204.448 41.6495,205.448 41.5,206.5C 42.5,206.5 43.5,206.5 44.5,206.5C 47.0608,207.831 49.5608,207.498 52,205.5C 52.4169,206.756 53.2502,207.423 54.5,207.5C 55.29,206.391 55.79,205.058 56,203.5C 56.3333,204.5 56.6667,205.5 57,206.5C 58.0875,204.068 58.5875,204.402 58.5,207.5C 60.5,207.5 62.5,207.5 64.5,207.5C 64.3433,206.127 64.51,204.793 65,203.5C 65.6344,207.597 67.301,208.264 70,205.5C 71.7889,207.229 73.9556,207.896 76.5,207.5C 76.5,212.5 76.5,217.5 76.5,222.5C 95.8333,222.5 115.167,222.5 134.5,222.5C 134.5,217.5 134.5,212.5 134.5,207.5C 136.017,207.489 137.184,206.823 138,205.5C 140.804,207.344 143.97,208.011 147.5,207.5C 147.351,206.448 147.517,205.448 148,204.5C 149.666,207.379 152.166,208.212 155.5,207C 154.804,205.512 155.138,204.012 156.5,202.5C 157.182,203.243 157.849,203.909 158.5,204.5 Z" data-terrain="land"/></g>
<g><path style="opacity:1" fill="#74875f" d="M 364.5,206.5 C 362.833,206.5 361.167,206.5 359.5,206.5C 360.531,205.751 361.698,205.085 363,204.5C 363.717,205.044 364.217,205.711 364.5,206.5 Z" data-terrain="land"/></g>
<g><path style="opacity:1" fill="#7d8671" d="M 225.5,207.5 C 223.167,207.5 220.833,207.5 218.5,207.5C 220.206,205.464 222.539,204.464 225.5,204.5C 225.5,205.5 225.5,206.5 225.5,207.5 Z" data-terrain="land"/></g>
<g><path style="opacity:1" fill="#7d876c" d="M 166.5,205.5 C 164.823,207.285 162.989,207.951 161,207.5C 159.583,206.922 158.75,205.922 158.5,204.5C 159.683,204.844 160.516,204.178 161,202.5C 161.333,203.5 161.667,204.5 162,205.5C 163.478,205.21 164.978,205.21 166.5,205.5 Z" data-terrain="land"/></g>
<g><path style="opacity:1" fill="#7d8b63" d="M 54.5,207.5 C 53.2502,207.423 52.4169,206.756 52,205.5C 49.5608,207.498 47.0608,207.831 44.5,206.5C 44.6932,202.551 45.1932,202.551 46,206.5C 46.6667,205.167 47.3333,205.167 48,206.5C 48.6667,205.167 49.6667,204.167 51,203.5C 51.6667,204.833 52.3333,204.833 53,203.5C 53.4101,204.901 53.9101,206.234 54.5,207.5 Z" data-terrain="land"/></g>
<g><path style="opacity:1" fill="#748559" d="M 198.5,205.5 C 197.448,207.256 195.781,207.923 193.5,207.5C 193.651,204.282 194.484,203.949 196,206.5C 196.342,204.381 197.175,204.047 198.5,205.5 Z" data-terrain="land"/></g>
<g><path style="opacity:1" fill="#7a846d" d="M 211.5,207.5 C 209.5,207.5 207.5,207.5 205.5,207.5C 205.238,206.022 205.571,204.689 206.5,203.5C 207.598,207.361 208.431,207.361 209,203.5C 210.706,204.308 211.539,205.641 211.5,207.5 Z" data-terrain="land"/></g>
<g><path style="opacity:1" fill="#739239" d="M 511.5,205.5 C 512.549,205.598 513.715,205.598 515,205.5C 515.333,206.167 515.667,206.833 516,207.5C 516.399,207.272 516.565,206.938 516.5,206.5C 517.117,206.611 517.617,206.944 518,207.5C 518.419,203.148 519.086,202.815 520,206.5C 521.087,204.068 521.587,204.402 521.5,207.5C 523.5,207.5 525.5,207.5 527.5,207.5C 527.833,202.167 528.167,202.167 528.5,207.5C 530.451,207.773 531.951,207.107 533,205.5C 535.135,207.278 537.635,207.945 540.5,207.5C 542.283,206.825 543.95,206.492 545.5,206.5C 546.09,205.234 546.59,203.901 547,202.5C 547.72,204.112 547.554,205.612 546.5,207C 548.81,207.497 551.143,207.663 553.5,207.5C 553.833,203.5 554.167,203.5 554.5,207.5C 555.552,207.649 556.552,207.483 557.5,207C 556.289,206.107 556.289,205.274 557.5,204.5C 558.386,205.325 558.719,206.325 558.5,207.5C 562.759,207.997 566.759,207.331 570.5,205.5C 572.623,206.694 574.957,207.36 577.5,207.5C 583.183,207.24 588.85,207.24 594.5,207.5C 597.371,207.885 599.537,206.885 601,204.5C 601.745,205.99 602.912,206.99 604.5,207.5C 606.403,206.647 608.403,206.647 610.5,207.5C 610.459,203.757 611.126,203.59 612.5,207C 616.396,208.003 618.73,206.503 619.5,202.5C 620.541,204.585 622.041,206.252 624,207.5C 624.741,206.359 625.575,206.359 626.5,207.5C 627.167,206.5 627.833,205.5 628.5,204.5C 629.192,205.025 629.692,205.692 630,206.5C 630.249,205.376 630.749,204.376 631.5,203.5C 633.073,208.492 634.906,208.492 637,203.5C 637.333,204.833 637.667,206.167 638,207.5C 639.707,206.862 641.54,206.862 643.5,207.5C 643.833,203.5 644.167,203.5 644.5,207.5C 645.833,207.5 647.167,207.5 648.5,207.5C 648.833,202.167 649.167,202.167 649.5,207.5C 651.674,207.08 653.674,207.08 655.5,207.5C 656.167,206.5 656.833,205.5 657.5,204.5C 658.192,205.025 658.692,205.692 659,206.5C 659.914,202.815 660.581,203.148 661,207.5C 662.67,202.408 663.503,202.408 663.5,207.5C 665.167,207.5 666.833,207.5 668.5,207.5C 669.5,207.5 670.5,207.5 671.5,207.5C 673.379,207.607 673.712,207.107 672.5,206C 674.131,204.164 674.798,204.664 674.5,207.5C 677.817,207.219 680.983,207.219 684,207.5C 685.333,206.833 686.667,206.167 688,205.5C 689.698,206.733 691.698,207.4 694,207.5C 697.327,206.895 700.494,206.895 703.5,207.5C 703.5,213.833 703.5,220.167 703.5,226.5C 722.833,226.5 742.167,226.5 761.5,226.5C 761.5,220.167 761.5,213.833 761.5,207.5C 763.597,206.647 765.597,206.647 767.5,207.5C 768.647,207.182 769.481,206.516 770,205.5C 770.417,206.756 771.25,207.423 772.5,207.5C 774.95,207.702 777.283,207.369 779.5,206.5C 780.919,207.451 782.585,207.784 784.5,207.5C 784.833,203.5 785.167,203.5 785.5,207.5C 787.124,207.64 788.29,206.973 789,205.5C 789.388,206.428 790.055,207.095 791,207.5C 794.048,207.386 797.048,207.386 800,207.5C 800.333,206.833 800.667,206.167 801,205.5C 802.18,206.684 803.68,207.351 805.5,207.5C 807.32,207.351 808.82,206.684 810,205.5C 810.519,206.516 811.353,207.182 812.5,207.5C 813.949,205.751 815.282,205.584 816.5,207C 819.332,207.212 821.998,207.379 824.5,207.5C 825.776,202.318 826.443,202.318 826.5,207.5C 827.552,207.649 828.552,207.483 829.5,207C 828.327,203.89 828.827,203.723 831,206.5C 833.484,203.741 834.65,204.074 834.5,207.5C 836.451,207.773 837.951,207.107 839,205.5C 839.308,206.308 839.808,206.975 840.5,207.5C 841.281,206.271 841.781,204.938 842,203.5C 842.583,205.002 843.416,206.335 844.5,207.5C 846.021,207.12 847.687,206.954 849.5,207C 849.167,206.667 848.833,206.333 848.5,206C 849.667,205.5 850.5,204.667 851,203.5C 852,204.5 853,205.5 854,206.5C 854.333,205.5 854.667,204.5 855,203.5C 855.232,204.737 855.732,205.737 856.5,206.5C 859.454,206.023 862.121,206.023 864.5,206.5C 865.417,206.506 865.917,205.506 866,203.5C 866.333,204.5 866.667,205.5 867,206.5C 868.087,204.068 868.587,204.402 868.5,207.5C 870.5,207.5 872.5,207.5 874.5,207.5C 874.343,206.127 874.51,204.793 875,203.5C 875.634,207.597 877.301,208.264 880,205.5C 882.135,207.278 884.635,207.945 887.5,207.5C 888.94,206.637 890.274,206.637 891.5,207.5C 892.298,207.043 892.631,206.376 892.5,205.5C 893.268,204.737 893.768,203.737 894,202.5C 894.003,206.882 896.169,208.549 900.5,207.5C 900.833,203.5 901.167,203.5 901.5,207.5C 902.552,207.649 903.552,207.483 904.5,207C 903.549,206.282 903.383,205.449 904,204.5C 905.421,207.622 907.087,207.956 909,205.5C 912.402,206.789 916.069,207.456 920,207.5C 923.931,207.456 927.598,206.789 931,205.5C 931.804,206.804 932.971,207.471 934.5,207.5C 936.681,206.879 939.014,206.879 941.5,207.5C 943.926,207.596 946.093,206.93 948,205.5C 949.754,207.25 951.921,207.917 954.5,207.5C 954.5,247.167 954.5,286.833 954.5,326.5C 891.167,326.5 827.833,326.5 764.5,326.5C 763.5,326.5 762.5,326.5 761.5,326.5C 761.5,322.5 761.5,318.5 761.5,314.5C 742.167,314.5 722.833,314.5 703.5,314.5C 703.5,318.5 703.5,322.5 703.5,326.5C 702.167,326.5 700.833,326.5 699.5,326.5C 620.167,326.5 540.833,326.5 461.5,326.5C 461.768,324.901 461.434,323.568 460.5,322.5C 461.809,313.197 461.809,303.863 460.5,294.5C 467.833,294.5 475.167,294.5 482.5,294.5C 482.5,275.167 482.5,255.833 482.5,236.5C 475.5,236.5 468.5,236.5 461.5,236.5C 461.771,234.179 461.104,232.179 459.5,230.5C 461.982,225.976 462.149,221.31 460,216.5C 459.504,218.035 459.67,219.535 460.5,221C 460.192,222.459 459.525,223.626 458.5,224.5C 458.334,219.489 458.501,214.489 459,209.5C 460.585,208.624 461.585,207.291 462,205.5C 465.402,206.789 469.069,207.456 473,207.5C 476.931,207.456 480.598,206.789 484,205.5C 484.804,206.804 485.971,207.471 487.5,207.5C 489.687,206.928 492.021,206.928 494.5,207.5C 494.343,206.127 494.51,204.793 495,203.5C 495.196,205.286 496.029,206.619 497.5,207.5C 499.385,206.391 501.385,205.557 503.5,205C 502.549,204.282 502.383,203.449 503,202.5C 504.57,203.614 505.903,204.947 507,206.5C 507.333,205.167 507.667,203.833 508,202.5C 508.216,204.384 508.883,206.051 510,207.5C 510.278,206.584 510.778,205.918 511.5,205.5 Z" data-terrain="land"/></g>
<g><path style="opacity:1" fill="#758563" d="M 892.5,205.5 C 892.631,206.376 892.298,207.043 891.5,207.5C 890.274,206.637 888.94,206.637 887.5,207.5C 887.491,205.692 887.991,204.025 889,202.5C 889.333,203.5 889.667,204.5 890,205.5C 890.77,204.402 891.603,204.402 892.5,205.5 Z" data-terrain="land"/></g>
<g><path style="opacity:1" fill="#7d8e57" d="M 779.5,206.5 C 777.283,207.369 774.95,207.702 772.5,207.5C 772.343,206.127 772.51,204.793 773,203.5C 774.899,207.102 776.565,206.769 778,202.5C 778.41,203.901 778.91,205.234 779.5,206.5 Z" data-terrain="land"/></g>
<g><path style="opacity:1" fill="#7c8e5c" d="M 671.5,207.5 C 670.5,207.5 669.5,207.5 668.5,207.5C 668.999,202.362 669.999,202.362 671.5,207.5 Z" data-terrain="land"/></g>
<g><path style="opacity:1" fill="#74865d" d="M 516.5,206.5 C 516.565,206.938 516.399,207.272 516,207.5C 515.667,206.833 515.333,206.167 515,205.5C 513.715,205.598 512.549,205.598 511.5,205.5C 511.369,204.761 511.536,204.094 512,203.5C 513.333,204.833 514.667,204.833 516,203.5C 516.483,204.448 516.649,205.448 516.5,206.5 Z" data-terrain="land"/></g>
<g><path style="opacity:1" fill="#71845c" d="M 545.5,206.5 C 543.95,206.492 542.283,206.825 540.5,207.5C 540.892,205.821 541.392,204.154 542,202.5C 542.333,203.5 542.667,204.5 543,205.5C 543.333,205.167 543.667,204.833 544,204.5C 544.278,205.416 544.778,206.082 545.5,206.5 Z" data-terrain="land"/></g>
<g><path style="opacity:1" fill="#798960" d="M 864.5,206.5 C 862.121,206.023 859.454,206.023 856.5,206.5C 857.469,205.691 858.302,204.691 859,203.5C 859.667,206.167 860.333,206.167 861,203.5C 861.667,204.833 862.333,204.833 863,203.5C 863.513,204.527 864.013,205.527 864.5,206.5 Z" data-terrain="land"/></g>
<g><path style="opacity:1" fill="#5d8037" d="M 461.5,236.5 C 460.5,236.5 459.5,236.5 458.5,236.5C 458.5,232.5 458.5,228.5 458.5,224.5C 459.525,223.626 460.192,222.459 460.5,221C 459.67,219.535 459.504,218.035 460,216.5C 462.149,221.31 461.982,225.976 459.5,230.5C 461.104,232.179 461.771,234.179 461.5,236.5 Z" data-terrain="land"/></g>
<g><path style="opacity:1" fill="#82873e" d="M 403.5,236.5 C 395.684,237.492 387.684,237.826 379.5,237.5C 379.5,256.5 379.5,275.5 379.5,294.5C 378.503,275.341 378.17,256.007 378.5,236.5C 386.833,236.5 395.167,236.5 403.5,236.5 Z" data-terrain="land"/></g>
<g><path style="opacity:1" fill="#a0734a" d="M 403.5,236.5 C 421.973,237.8 440.307,237.8 458.5,236.5C 459.5,236.5 460.5,236.5 461.5,236.5C 468.5,236.5 475.5,236.5 482.5,236.5C 482.5,255.833 482.5,275.167 482.5,294.5C 475.167,294.5 467.833,294.5 460.5,294.5C 459.833,294.5 459.167,294.5 458.5,294.5C 457.5,294.5 456.5,294.5 455.5,294.5C 440.167,294.5 424.833,294.5 409.5,294.5C 407.685,295.63 405.685,296.296 403.5,296.5C 395.903,294.533 387.903,293.866 379.5,294.5C 379.5,275.5 379.5,256.5 379.5,237.5C 387.684,237.826 395.684,237.492 403.5,236.5 Z" data-terrain="land"/></g>
<g><path style="opacity:1" fill="#858a90" d="M 409.5,294.5 C 409.5,307.167 409.5,319.833 409.5,332.5C 373.5,332.5 337.5,332.5 301.5,332.5C 301.325,330.379 301.659,328.379 302.5,326.5C 336.167,326.5 369.833,326.5 403.5,326.5C 403.977,316.307 403.977,306.307 403.5,296.5C 405.685,296.296 407.685,295.63 409.5,294.5 Z" data-terrain="land"/></g>
<g><path style="opacity:1" fill="#72a7c1" d="M 409.5,294.5 C 424.833,294.5 440.167,294.5 455.5,294.5C 455.5,307.167 455.5,319.833 455.5,332.5C 538.167,332.5 620.833,332.5 703.5,332.5C 703.5,352.167 703.5,371.833 703.5,391.5C 645.167,391.5 586.833,391.5 528.5,391.5C 452.833,391.5 377.167,391.5 301.5,391.5C 301.5,371.833 301.5,352.167 301.5,332.5C 337.5,332.5 373.5,332.5 409.5,332.5C 409.5,319.833 409.5,307.167 409.5,294.5 Z" data-terrain="water"/></g>
<g><path style="opacity:1" fill="#5b883a" d="M 458.5,294.5 C 459.167,294.5 459.833,294.5 460.5,294.5C 461.809,303.863 461.809,313.197 460.5,322.5C 458.528,313.56 457.861,304.227 458.5,294.5 Z" data-terrain="land"/></g>
<g><path style="opacity:1" fill="#a0734a" d="M 136.5,326.5 C 134.919,328.142 134.253,330.142 134.5,332.5C 134.5,352.167 134.5,371.833 134.5,391.5C 134.5,392.833 134.5,394.167 134.5,395.5C 134.5,401.167 134.5,406.833 134.5,412.5C 115.167,412.5 95.8333,412.5 76.5,412.5C 76.5,406.833 76.5,401.167 76.5,395.5C 77.8333,374.5 77.8333,353.5 76.5,332.5C 76.1667,332.5 75.8333,332.5 75.5,332.5C 75.0293,330.421 74.3627,328.421 73.5,326.5C 74.5,326.5 75.5,326.5 76.5,326.5C 76.5,320.833 76.5,315.167 76.5,309.5C 95.8333,309.5 115.167,309.5 134.5,309.5C 133.883,315.598 134.55,321.265 136.5,326.5 Z" data-terrain="land"/></g>
<g><path style="opacity:1" fill="#a0724a" d="M 302.5,326.5 C 301.659,328.379 301.325,330.379 301.5,332.5C 301.5,352.167 301.5,371.833 301.5,391.5C 301.5,392.833 301.5,394.167 301.5,395.5C 301.5,401.167 301.5,406.833 301.5,412.5C 282.167,412.5 262.833,412.5 243.5,412.5C 243.5,406.833 243.5,401.167 243.5,395.5C 243.5,394.167 243.5,392.833 243.5,391.5C 243.5,391.167 243.5,390.833 243.5,390.5C 243.5,371.167 243.5,351.833 243.5,332.5C 243.5,330.833 243.5,329.167 243.5,327.5C 242.209,327.737 241.209,327.404 240.5,326.5C 241.5,326.5 242.5,326.5 243.5,326.5C 243.5,320.833 243.5,315.167 243.5,309.5C 262.833,309.5 282.167,309.5 301.5,309.5C 301.178,315.358 301.511,321.025 302.5,326.5 Z" data-terrain="land"/></g>
<g><path style="opacity:1" fill="#a0734b" d="M 764.5,326.5 C 763.791,327.404 762.791,327.737 761.5,327.5C 761.5,329.167 761.5,330.833 761.5,332.5C 761.5,352.167 761.5,371.833 761.5,391.5C 761.5,392.833 761.5,394.167 761.5,395.5C 761.5,403.167 761.5,410.833 761.5,418.5C 742.167,418.5 722.833,418.5 703.5,418.5C 703.5,410.833 703.5,403.167 703.5,395.5C 703.5,394.167 703.5,392.833 703.5,391.5C 703.5,371.833 703.5,352.167 703.5,332.5C 702.962,330.883 702.629,329.216 702.5,327.5C 701.209,327.737 700.209,327.404 699.5,326.5C 700.833,326.5 702.167,326.5 703.5,326.5C 703.5,322.5 703.5,318.5 703.5,314.5C 722.833,314.5 742.167,314.5 761.5,314.5C 761.5,318.5 761.5,322.5 761.5,326.5C 762.5,326.5 763.5,326.5 764.5,326.5 Z" data-terrain="land"/></g>
<g><path style="opacity:1" fill="#84888e" d="M -0.5,326.5 C 24.1667,326.5 48.8333,326.5 73.5,326.5C 74.3627,328.421 75.0293,330.421 75.5,332.5C 50.1667,332.5 24.8333,332.5 -0.5,332.5C -0.5,330.5 -0.5,328.5 -0.5,326.5 Z" data-terrain="land"/></g>
<g><path style="opacity:1" fill="#83868d" d="M 136.5,326.5 C 171.167,326.5 205.833,326.5 240.5,326.5C 241.209,327.404 242.209,327.737 243.5,327.5C 243.5,329.167 243.5,330.833 243.5,332.5C 207.5,332.5 171.5,332.5 135.5,332.5C 135.167,332.5 134.833,332.5 134.5,332.5C 134.253,330.142 134.919,328.142 136.5,326.5 Z" data-terrain="land"/></g>
<g><path style="opacity:1" fill="#868b91" d="M 764.5,326.5 C 827.833,326.5 891.167,326.5 954.5,326.5C 954.5,328.5 954.5,330.5 954.5,332.5C 890.167,332.5 825.833,332.5 761.5,332.5C 761.5,330.833 761.5,329.167 761.5,327.5C 762.791,327.737 763.791,327.404 764.5,326.5 Z" data-terrain="land"/></g>
<g><path style="opacity:1" fill="#868a90" d="M 455.5,294.5 C 456.5,294.5 457.5,294.5 458.5,294.5C 457.861,304.227 458.528,313.56 460.5,322.5C 461.434,323.568 461.768,324.901 461.5,326.5C 540.833,326.5 620.167,326.5 699.5,326.5C 700.209,327.404 701.209,327.737 702.5,327.5C 702.629,329.216 702.962,330.883 703.5,332.5C 620.833,332.5 538.167,332.5 455.5,332.5C 455.5,319.833 455.5,307.167 455.5,294.5 Z" data-terrain="land"/></g>
<g><path style="opacity:1" fill="#72a8c1" d="M -0.5,332.5 C 24.8333,332.5 50.1667,332.5 75.5,332.5C 75.8333,332.5 76.1667,332.5 76.5,332.5C 76.5,352.167 76.5,371.833 76.5,391.5C 50.8333,391.5 25.1667,391.5 -0.5,391.5C -0.5,371.833 -0.5,352.167 -0.5,332.5 Z" data-terrain="water"/></g>
<g><path style="opacity:1" fill="#71a8c2" d="M 135.5,332.5 C 171.5,332.5 207.5,332.5 243.5,332.5C 243.5,351.833 243.5,371.167 243.5,390.5C 207.5,390.5 171.5,390.5 135.5,390.5C 135.5,371.167 135.5,351.833 135.5,332.5 Z" data-terrain="water"/></g>
<g><path style="opacity:1" fill="#72a7c1" d="M 761.5,332.5 C 825.833,332.5 890.167,332.5 954.5,332.5C 954.5,352.167 954.5,371.833 954.5,391.5C 890.167,391.5 825.833,391.5 761.5,391.5C 761.5,371.833 761.5,352.167 761.5,332.5 Z" data-terrain="water"/></g>
<g><path style="opacity:1" fill="#86a1b1" d="M 134.5,332.5 C 134.833,332.5 135.167,332.5 135.5,332.5C 135.5,351.833 135.5,371.167 135.5,390.5C 171.5,390.5 207.5,390.5 243.5,390.5C 243.5,390.833 243.5,391.167 243.5,391.5C 207.167,391.5 170.833,391.5 134.5,391.5C 134.5,371.833 134.5,352.167 134.5,332.5 Z" data-terrain="water"/></g>
<g><path style="opacity:1" fill="#86878a" d="M 76.5,332.5 C 77.8333,353.5 77.8333,374.5 76.5,395.5C 50.8333,395.5 25.1667,395.5 -0.5,395.5C -0.5,394.167 -0.5,392.833 -0.5,391.5C 25.1667,391.5 50.8333,391.5 76.5,391.5C 76.5,371.833 76.5,352.167 76.5,332.5 Z" data-terrain="land"/></g>
<g><path style="opacity:1" fill="#83868c" d="M 134.5,391.5 C 170.833,391.5 207.167,391.5 243.5,391.5C 243.5,392.833 243.5,394.167 243.5,395.5C 207.167,395.5 170.833,395.5 134.5,395.5C 134.5,394.167 134.5,392.833 134.5,391.5 Z" data-terrain="land"/></g>
<g><path style="opacity:1" fill="#85898e" d="M 301.5,391.5 C 377.167,391.5 452.833,391.5 528.5,391.5C 528.5,392.833 528.5,394.167 528.5,395.5C 452.833,395.5 377.167,395.5 301.5,395.5C 301.5,394.167 301.5,392.833 301.5,391.5 Z" data-terrain="land"/></g>
<g><path style="opacity:1" fill="#81838a" d="M 528.5,391.5 C 586.833,391.5 645.167,391.5 703.5,391.5C 703.5,392.833 703.5,394.167 703.5,395.5C 645.167,395.5 586.833,395.5 528.5,395.5C 528.5,394.167 528.5,392.833 528.5,391.5 Z" data-terrain="land"/></g>
<g><path style="opacity:1" fill="#83858c" d="M 761.5,391.5 C 825.833,391.5 890.167,391.5 954.5,391.5C 954.5,392.833 954.5,394.167 954.5,395.5C 890.167,395.5 825.833,395.5 761.5,395.5C 761.5,394.167 761.5,392.833 761.5,391.5 Z" data-terrain="land"/></g>
<g><path style="opacity:1" fill="#739239" d="M -0.5,395.5 C 25.1667,395.5 50.8333,395.5 76.5,395.5C 76.5,401.167 76.5,406.833 76.5,412.5C 95.8333,412.5 115.167,412.5 134.5,412.5C 134.5,406.833 134.5,401.167 134.5,395.5C 170.833,395.5 207.167,395.5 243.5,395.5C 243.5,401.167 243.5,406.833 243.5,412.5C 262.833,412.5 282.167,412.5 301.5,412.5C 301.5,406.833 301.5,401.167 301.5,395.5C 377.167,395.5 452.833,395.5 528.5,395.5C 586.833,395.5 645.167,395.5 703.5,395.5C 703.5,403.167 703.5,410.833 703.5,418.5C 722.833,418.5 742.167,418.5 761.5,418.5C 761.5,410.833 761.5,403.167 761.5,395.5C 825.833,395.5 890.167,395.5 954.5,395.5C 954.5,441.833 954.5,488.167 954.5,534.5C 636.167,534.5 317.833,534.5 -0.5,534.5C -0.5,488.167 -0.5,441.833 -0.5,395.5 Z" data-terrain="land"/></g>
<rect id="bridge-0" x="77"  y="120" width="58"  height="103" />
<rect id="bridge-1" x="244" y="120" width="58"  height="103" />
<rect id="bridge-2" x="704" y="123" width="58"  height="103" />
<rect id="bridge-3" x="380" y="237" width="103" height="59"  />
<rect id="bridge-4" x="77"  y="310" width="58"  height="103" />
<rect id="bridge-5" x="244" y="310" width="58"  height="103" />
<rect id="bridge-6" x="704" y="315" width="58"  height="103" />
</svg>
