<?xml version="1.0" encoding="UTF-8"?>
<!DOCTYPE svg PUBLIC "-//W3C//DTD SVG 1.1//EN" "http://www.w3.org/Graphics/SVG/1.1/DTD/svg11.dtd">
<svg xmlns="http://www.w3.org/2000/svg" version="1.1" width="940px" height="522px" style="shape-rendering:geometricPrecision; text-rendering:geometricPrecision; image-rendering:optimizeQuality; fill-rule:evenodd; clip-rule:evenodd" xmlns:xlink="http://www.w3.org/1999/xlink">
<g><path style="opacity:1" fill="#6d8d39" d="M -0.5,-0.5 C 147.833,-0.5 296.167,-0.5 444.5,-0.5C 444.333,20.5026 444.5,41.5026 445,62.5C 446.189,64.2331 447.356,65.8998 448.5,67.5C 448.5,68.1667 448.5,68.8333 448.5,69.5C 446.862,70.657 445.196,71.8236 443.5,73C 444.711,73.8928 444.711,74.7261 443.5,75.5C 415.01,92.4577 386.344,109.291 357.5,126C 355.937,126.759 354.937,127.926 354.5,129.5C 353.5,130.5 352.5,131.5 351.5,132.5C 343.558,125.73 335.724,118.73 328,111.5C 314.466,125.366 301.299,139.532 288.5,154C 296.364,161.033 304.031,168.2 311.5,175.5C 310.045,180.082 308.878,184.749 308,189.5C 307.667,189.167 307.333,188.833 307,188.5C 302.991,197.826 300.158,207.826 298.5,218.5C 297.662,218.842 297.328,219.508 297.5,220.5C 291.644,231.514 282.644,238.68 270.5,242C 224.835,242.5 179.168,242.667 133.5,242.5C 133.5,231.833 133.5,221.167 133.5,210.5C 114.167,210.5 94.8333,210.5 75.5,210.5C 75.5,221.5 75.5,232.5 75.5,243.5C 50.1667,243.5 24.8333,243.5 -0.5,243.5C -0.5,162.167 -0.5,80.8333 -0.5,-0.5 Z" data-terrain="land"/></g>
<g><path style="opacity:1" fill="#6eb1ce" d="M 450.5,-0.5 C 463.833,-0.5 477.167,-0.5 490.5,-0.5C 490.5,22.1667 490.5,44.8333 490.5,67.5C 489.141,74.6681 491.141,80.6681 496.5,85.5C 503.081,89.9571 510.081,93.6237 517.5,96.5C 538.105,107.137 558.772,117.804 579.5,128.5C 578.833,129.833 578.167,131.167 577.5,132.5C 577.957,133.298 578.624,133.631 579.5,133.5C 571.806,141.196 563.806,148.529 555.5,155.5C 552.305,152.148 548.638,149.315 544.5,147C 528.083,136.973 510.416,130.306 491.5,127C 459.321,122.438 429.321,128.271 401.5,144.5C 393.142,147.672 385.809,152.338 379.5,158.5C 370.507,150.84 361.84,142.84 353.5,134.5C 355.69,133.252 356.023,131.586 354.5,129.5C 364.937,124.447 374.937,118.614 384.5,112C 404.27,102.949 423.603,93.1153 442.5,82.5C 445.853,78.7944 447.853,74.461 448.5,69.5C 448.5,68.8333 448.5,68.1667 448.5,67.5C 447.86,44.6031 448.527,21.9365 450.5,-0.5 Z" data-terrain="water"/></g>
<g><path style="opacity:1" fill="#6d8d39" d="M 490.5,-0.5 C 640.167,-0.5 789.833,-0.5 939.5,-0.5C 939.5,80.5 939.5,161.5 939.5,242.5C 905.833,242.5 872.167,242.5 838.5,242.5C 838.5,231.833 838.5,221.167 838.5,210.5C 818.993,210.17 799.659,210.503 780.5,211.5C 780.828,222.014 780.494,232.347 779.5,242.5C 740.499,242.667 701.499,242.5 662.5,242C 643.428,234.902 633.594,221.068 633,200.5C 631.844,201.993 631.01,201.826 630.5,200C 627.434,191.613 624.1,183.446 620.5,175.5C 629.12,167.216 637.786,158.882 646.5,150.5C 633.95,136.572 621.283,122.739 608.5,109C 607.833,108.333 607.167,108.333 606.5,109C 597.63,117.373 588.63,125.54 579.5,133.5C 578.624,133.631 577.957,133.298 577.5,132.5C 578.167,131.167 578.833,129.833 579.5,128.5C 558.772,117.804 538.105,107.137 517.5,96.5C 519.319,95.0638 519.652,93.3971 518.5,91.5C 511.96,87.7302 505.293,84.2302 498.5,81C 494.641,77.1025 491.975,72.6025 490.5,67.5C 490.5,44.8333 490.5,22.1667 490.5,-0.5 Z" data-terrain="land"/></g>
<g><path style="opacity:1" fill="#878d8a" d="M 444.5,-0.5 C 446.5,-0.5 448.5,-0.5 450.5,-0.5C 448.527,21.9365 447.86,44.6031 448.5,67.5C 447.356,65.8998 446.189,64.2331 445,62.5C 444.5,41.5026 444.333,20.5026 444.5,-0.5 Z"/></g>
<g><path style="opacity:1" fill="#868d90" d="M 448.5,69.5 C 447.853,74.461 445.853,78.7944 442.5,82.5C 423.603,93.1153 404.27,102.949 384.5,112C 374.937,118.614 364.937,124.447 354.5,129.5C 354.937,127.926 355.937,126.759 357.5,126C 386.344,109.291 415.01,92.4577 443.5,75.5C 444.711,74.7261 444.711,73.8928 443.5,73C 445.196,71.8236 446.862,70.657 448.5,69.5 Z"/></g>
<g><path style="opacity:1" fill="#8a9093" d="M 490.5,67.5 C 491.975,72.6025 494.641,77.1025 498.5,81C 505.293,84.2302 511.96,87.7302 518.5,91.5C 519.652,93.3971 519.319,95.0638 517.5,96.5C 510.081,93.6237 503.081,89.9571 496.5,85.5C 491.141,80.6681 489.141,74.6681 490.5,67.5 Z"/></g>
<g><path style="opacity:1" fill="#a0734a" d="M 620.5,175.5 C 619.5,175.833 618.833,176.5 618.5,177.5C 609.527,185.138 600.86,193.138 592.5,201.5C 585.221,207.442 578.221,213.775 571.5,220.5C 559.512,208.345 547.679,196.011 536,183.5C 534.398,181.631 533.398,179.631 533,177.5C 541.005,170.662 548.505,163.329 555.5,155.5C 563.806,148.529 571.806,141.196 579.5,133.5C 588.63,125.54 597.63,117.373 606.5,109C 607.167,108.333 607.833,108.333 608.5,109C 621.283,122.739 633.95,136.572 646.5,150.5C 637.786,158.882 629.12,167.216 620.5,175.5 Z"/></g>
<g><path style="opacity:1" fill="#a0734b" d="M 351.5,132.5 C 351.833,133.5 352.5,134.167 353.5,134.5C 361.84,142.84 370.507,150.84 379.5,158.5C 379.5,159.167 379.833,159.5 380.5,159.5C 387.803,166.634 395.303,173.634 403,180.5C 403.667,181.167 403.667,181.833 403,182.5C 390.158,196.208 377.324,209.875 364.5,223.5C 358.183,218.516 352.183,213.182 346.5,207.5C 346.167,206.5 345.5,205.833 344.5,205.5C 335.167,197.167 325.833,188.833 316.5,180.5C 315.167,178.5 313.5,176.833 311.5,175.5C 304.031,168.2 296.364,161.033 288.5,154C 301.299,139.532 314.466,125.366 328,111.5C 335.724,118.73 343.558,125.73 351.5,132.5 Z"/></g>
<g><path style="opacity:1" fill="#6d8e39" d="M 555.5,155.5 C 548.505,163.329 541.005,170.662 533,177.5C 533.398,179.631 534.398,181.631 536,183.5C 547.679,196.011 559.512,208.345 571.5,220.5C 578.221,213.775 585.221,207.442 592.5,201.5C 597.027,215.245 601.86,228.912 607,242.5C 609.171,257.554 608.838,272.554 606,287.5C 601.514,302.129 596.347,316.462 590.5,330.5C 582.186,323.189 573.853,315.856 565.5,308.5C 552.163,321.838 539.163,335.504 526.5,349.5C 534.533,357.507 542.533,365.507 550.5,373.5C 536.193,380.32 521.86,387.153 507.5,394C 483.977,400.9 460.311,401.234 436.5,395C 420.322,387.078 404.322,378.911 388.5,370.5C 395.495,362.671 402.995,355.338 411,348.5C 410.253,346.024 408.919,343.691 407,341.5C 395.655,329.322 384.155,317.322 372.5,305.5C 365.119,311.535 358.119,318.035 351.5,325C 350.212,325.239 349.212,324.739 348.5,323.5C 348.34,321.847 347.674,320.514 346.5,319.5C 345.737,315.863 344.403,312.53 342.5,309.5C 340.664,302.011 338.664,294.678 336.5,287.5C 335.623,272.519 335.29,257.519 335.5,242.5C 337.337,234.153 339.337,225.819 341.5,217.5C 343.153,214.241 344.819,210.907 346.5,207.5C 352.183,213.182 358.183,218.516 364.5,223.5C 377.324,209.875 390.158,196.208 403,182.5C 403.667,181.833 403.667,181.167 403,180.5C 395.303,173.634 387.803,166.634 380.5,159.5C 387.332,154.252 394.332,149.252 401.5,144.5C 429.321,128.271 459.321,122.438 491.5,127C 510.416,130.306 528.083,136.973 544.5,147C 548.638,149.315 552.305,152.148 555.5,155.5 Z" data-terrain="land"/></g>
<g><path style="opacity:1" fill="#858d91" d="M 354.5,129.5 C 356.023,131.586 355.69,133.252 353.5,134.5C 352.5,134.167 351.833,133.5 351.5,132.5C 352.5,131.5 353.5,130.5 354.5,129.5 Z"/></g>
<g><path style="opacity:1" fill="#888d8d" d="M 401.5,144.5 C 394.332,149.252 387.332,154.252 380.5,159.5C 379.833,159.5 379.5,159.167 379.5,158.5C 385.809,152.338 393.142,147.672 401.5,144.5 Z"/></g>
<g><path style="opacity:1" fill="#888f8f" d="M 311.5,175.5 C 313.5,176.833 315.167,178.5 316.5,180.5C 311.012,193.474 305.012,206.14 298.5,218.5C 300.158,207.826 302.991,197.826 307,188.5C 307.333,188.833 307.667,189.167 308,189.5C 308.878,184.749 310.045,180.082 311.5,175.5 Z"/></g>
<g><path style="opacity:1" fill="#6eb1cd" d="M 618.5,177.5 C 621.91,183.988 625.076,190.655 628,197.5C 631.392,208.405 635.392,219.072 640,229.5C 644.299,234.805 649.466,238.972 655.5,242C 696.773,243.483 738.106,243.983 779.5,243.5C 780.819,255.069 780.819,266.735 779.5,278.5C 739.488,278.804 699.488,278.471 659.5,277.5C 656.139,277.274 653.805,278.607 652.5,281.5C 645.901,284.931 640.735,289.931 637,296.5C 631.921,311.905 626.754,327.239 621.5,342.5C 620.229,346.723 618.229,350.39 615.5,353.5C 606.841,346.173 598.507,338.507 590.5,330.5C 596.347,316.462 601.514,302.129 606,287.5C 608.838,272.554 609.171,257.554 607,242.5C 601.86,228.912 597.027,215.245 592.5,201.5C 600.86,193.138 609.527,185.138 618.5,177.5 Z" data-terrain="water"/></g>
<g><path style="opacity:1" fill="#6eb1ce" d="M 316.5,180.5 C 325.833,188.833 335.167,197.167 344.5,205.5C 343.512,209.485 342.512,213.485 341.5,217.5C 339.337,225.819 337.337,234.153 335.5,242.5C 334.34,255.327 334.173,268.327 335,281.5C 335.191,283.708 335.691,285.708 336.5,287.5C 337.111,295.315 339.111,302.649 342.5,309.5C 342.872,313.297 344.206,316.63 346.5,319.5C 347.674,320.514 348.34,321.847 348.5,323.5C 348.435,325.696 347.768,327.696 346.5,329.5C 339.165,336.834 331.498,343.834 323.5,350.5C 322.728,349.306 321.728,348.306 320.5,347.5C 319.858,343.867 317.858,341.534 314.5,340.5C 310.249,327.577 306.082,314.577 302,301.5C 297.315,289.48 288.815,281.646 276.5,278C 229.501,277.5 182.501,277.333 135.5,277.5C 135.167,277.5 134.833,277.5 134.5,277.5C 134.5,266.167 134.5,254.833 134.5,243.5C 181.835,243.667 229.168,243.5 276.5,243C 281.977,241.678 286.811,239.178 291,235.5C 293.762,230.655 295.928,225.655 297.5,220.5C 297.328,219.508 297.662,218.842 298.5,218.5C 305.012,206.14 311.012,193.474 316.5,180.5 Z" data-terrain="water"/></g>
<g><path style="opacity:1" fill="#8b7d43" d="M 780.5,211.5 C 799.659,210.503 818.993,210.17 838.5,210.5C 838.5,221.167 838.5,231.833 838.5,242.5C 838.167,242.5 837.833,242.5 837.5,242.5C 837.5,232.167 837.5,221.833 837.5,211.5C 818.5,211.5 799.5,211.5 780.5,211.5 Z"/></g>
<g><path style="opacity:1" fill="#a0734a" d="M 133.5,242.5 C 133.172,254.345 133.505,266.012 134.5,277.5C 134.833,277.5 135.167,277.5 135.5,277.5C 135.5,277.833 135.5,278.167 135.5,278.5C 133.521,290.12 132.854,302.12 133.5,314.5C 114.167,314.5 94.8333,314.5 75.5,314.5C 75.5,302.5 75.5,290.5 75.5,278.5C 75.5,266.833 75.5,255.167 75.5,243.5C 75.5,232.5 75.5,221.5 75.5,210.5C 94.8333,210.5 114.167,210.5 133.5,210.5C 133.5,221.167 133.5,231.833 133.5,242.5 Z"/></g>
<g><path style="opacity:1" fill="#a0734a" d="M 780.5,211.5 C 799.5,211.5 818.5,211.5 837.5,211.5C 837.5,221.833 837.5,232.167 837.5,242.5C 837.5,254.5 837.5,266.5 837.5,278.5C 837.5,290.5 837.5,302.5 837.5,314.5C 818.5,314.5 799.5,314.5 780.5,314.5C 780.828,302.322 780.495,290.322 779.5,278.5C 780.819,266.735 780.819,255.069 779.5,243.5C 779.5,243.167 779.5,242.833 779.5,242.5C 780.494,232.347 780.828,222.014 780.5,211.5 Z"/></g>
<g><path style="opacity:1" fill="#848c8c" d="M 344.5,205.5 C 345.5,205.833 346.167,206.5 346.5,207.5C 344.819,210.907 343.153,214.241 341.5,217.5C 342.512,213.485 343.512,209.485 344.5,205.5 Z"/></g>
<g><path style="opacity:1" fill="#82908a" d="M 620.5,175.5 C 624.1,183.446 627.434,191.613 630.5,200C 631.01,201.826 631.844,201.993 633,200.5C 633.594,221.068 643.428,234.902 662.5,242C 701.499,242.5 740.499,242.667 779.5,242.5C 779.5,242.833 779.5,243.167 779.5,243.5C 738.106,243.983 696.773,243.483 655.5,242C 649.466,238.972 644.299,234.805 640,229.5C 635.392,219.072 631.392,208.405 628,197.5C 625.076,190.655 621.91,183.988 618.5,177.5C 618.833,176.5 619.5,175.833 620.5,175.5 Z"/></g>
<g><path style="opacity:1" fill="#81908a" d="M 297.5,220.5 C 295.928,225.655 293.762,230.655 291,235.5C 286.811,239.178 281.977,241.678 276.5,243C 229.168,243.5 181.835,243.667 134.5,243.5C 134.5,254.833 134.5,266.167 134.5,277.5C 133.505,266.012 133.172,254.345 133.5,242.5C 179.168,242.667 224.835,242.5 270.5,242C 282.644,238.68 291.644,231.514 297.5,220.5 Z"/></g>
<g><path style="opacity:1" fill="#6eb1cd" d="M -0.5,243.5 C 24.8333,243.5 50.1667,243.5 75.5,243.5C 75.5,255.167 75.5,266.833 75.5,278.5C 50.1667,278.5 24.8333,278.5 -0.5,278.5C -0.5,266.833 -0.5,255.167 -0.5,243.5 Z" data-terrain="water"/></g>
<g><path style="opacity:1" fill="#6eb1ce" d="M 939.5,243.5 C 939.5,254.833 939.5,266.167 939.5,277.5C 905.833,277.5 872.167,277.5 838.5,277.5C 838.5,266.167 838.5,254.833 838.5,243.5C 872.167,243.5 905.833,243.5 939.5,243.5 Z" data-terrain="water"/></g>
<g><path style="opacity:1" fill="#808c7a" d="M 335.5,242.5 C 335.29,257.519 335.623,272.519 336.5,287.5C 335.691,285.708 335.191,283.708 335,281.5C 334.173,268.327 334.34,255.327 335.5,242.5 Z"/></g>
<g><path style="opacity:1" fill="#809289" d="M 837.5,242.5 C 837.833,242.5 838.167,242.5 838.5,242.5C 872.167,242.5 905.833,242.5 939.5,242.5C 939.5,242.833 939.5,243.167 939.5,243.5C 905.833,243.5 872.167,243.5 838.5,243.5C 838.5,254.833 838.5,266.167 838.5,277.5C 872.167,277.5 905.833,277.5 939.5,277.5C 939.5,277.833 939.5,278.167 939.5,278.5C 905.5,278.5 871.5,278.5 837.5,278.5C 837.5,266.5 837.5,254.5 837.5,242.5 Z"/></g>
<g><path style="opacity:1" fill="#6d8d39" d="M -0.5,278.5 C 24.8333,278.5 50.1667,278.5 75.5,278.5C 75.5,290.5 75.5,302.5 75.5,314.5C 94.8333,314.5 114.167,314.5 133.5,314.5C 132.854,302.12 133.521,290.12 135.5,278.5C 180.168,278.333 224.835,278.5 269.5,279C 280.307,281.486 288.807,287.319 295,296.5C 299.266,306.247 302.599,316.247 305,326.5C 309.333,333.833 313.667,341.167 318,348.5C 318.671,347.748 319.504,347.414 320.5,347.5C 320.216,349.415 320.549,351.081 321.5,352.5C 313.864,359.967 306.031,367.3 298,374.5C 297.333,375.167 297.333,375.833 298,376.5C 310.842,390.208 323.676,403.875 336.5,417.5C 344.486,410.847 352.153,403.847 359.5,396.5C 377.308,407.241 395.308,417.741 413.5,428C 417.152,428.499 420.818,428.665 424.5,428.5C 430.529,430.936 436.029,433.602 441,436.5C 444.212,443.091 445.379,450.091 444.5,457.5C 434.167,457.5 423.833,457.5 413.5,457.5C 413.5,476.833 413.5,496.167 413.5,515.5C 423.833,515.5 434.167,515.5 444.5,515.5C 444.5,516.5 444.5,517.5 444.5,518.5C 444.5,519.5 444.5,520.5 444.5,521.5C 296.167,521.5 147.833,521.5 -0.5,521.5C -0.5,440.5 -0.5,359.5 -0.5,278.5 Z" data-terrain="land"/></g>
<g><path style="opacity:1" fill="#6d8d39" d="M 779.5,278.5 C 780.495,290.322 780.828,302.322 780.5,314.5C 799.5,314.5 818.5,314.5 837.5,314.5C 837.5,302.5 837.5,290.5 837.5,278.5C 871.5,278.5 905.5,278.5 939.5,278.5C 939.5,359.5 939.5,440.5 939.5,521.5C 789.833,521.5 640.167,521.5 490.5,521.5C 490.5,519.5 490.5,517.5 490.5,515.5C 499.167,515.5 507.833,515.5 516.5,515.5C 516.5,496.167 516.5,476.833 516.5,457.5C 507.833,457.5 499.167,457.5 490.5,457.5C 488.563,448.012 491.063,440.012 498,433.5C 498.333,433.833 498.667,434.167 499,434.5C 503.212,431.81 507.712,429.81 512.5,428.5C 514.527,428.662 516.527,428.495 518.5,428C 524.399,424.221 530.399,420.721 536.5,417.5C 549.694,410.738 562.694,403.738 575.5,396.5C 584.463,404.293 593.296,412.293 602,420.5C 614.299,406.533 626.966,392.866 640,379.5C 640.667,378.5 640.667,377.5 640,376.5C 631.636,368.967 623.469,361.3 615.5,353.5C 618.229,350.39 620.229,346.723 621.5,342.5C 629.077,331.674 633.577,319.674 635,306.5C 636.393,302.714 638.059,299.048 640,295.5C 644.083,290.593 648.25,285.927 652.5,281.5C 653.805,278.607 656.139,277.274 659.5,277.5C 699.488,278.471 739.488,278.804 779.5,278.5 Z" data-terrain="land"/></g>
<g><path style="opacity:1" fill="#858c8f" d="M 135.5,278.5 C 135.5,278.167 135.5,277.833 135.5,277.5C 182.501,277.333 229.501,277.5 276.5,278C 288.815,281.646 297.315,289.48 302,301.5C 306.082,314.577 310.249,327.577 314.5,340.5C 317.858,341.534 319.858,343.867 320.5,347.5C 319.504,347.414 318.671,347.748 318,348.5C 313.667,341.167 309.333,333.833 305,326.5C 302.599,316.247 299.266,306.247 295,296.5C 288.807,287.319 280.307,281.486 269.5,279C 224.835,278.5 180.168,278.333 135.5,278.5 Z"/></g>
<g><path style="opacity:1" fill="#828d88" d="M 336.5,287.5 C 338.664,294.678 340.664,302.011 342.5,309.5C 339.111,302.649 337.111,295.315 336.5,287.5 Z"/></g>
<g><path style="opacity:1" fill="#a0734b" d="M 388.5,370.5 C 378.592,377.737 369.592,386.07 361.5,395.5C 360.508,395.328 359.842,395.662 359.5,396.5C 352.153,403.847 344.486,410.847 336.5,417.5C 323.676,403.875 310.842,390.208 298,376.5C 297.333,375.833 297.333,375.167 298,374.5C 306.031,367.3 313.864,359.967 321.5,352.5C 322.5,352.167 323.167,351.5 323.5,350.5C 331.498,343.834 339.165,336.834 346.5,329.5C 347.768,327.696 348.435,325.696 348.5,323.5C 349.212,324.739 350.212,325.239 351.5,325C 358.119,318.035 365.119,311.535 372.5,305.5C 384.155,317.322 395.655,329.322 407,341.5C 408.919,343.691 410.253,346.024 411,348.5C 402.995,355.338 395.495,362.671 388.5,370.5 Z"/></g>
<g><path style="opacity:1" fill="#a0734b" d="M 590.5,330.5 C 598.507,338.507 606.841,346.173 615.5,353.5C 623.469,361.3 631.636,368.967 640,376.5C 640.667,377.5 640.667,378.5 640,379.5C 626.966,392.866 614.299,406.533 602,420.5C 593.296,412.293 584.463,404.293 575.5,396.5C 567.493,388.493 559.159,380.827 550.5,373.5C 542.533,365.507 534.533,357.507 526.5,349.5C 539.163,335.504 552.163,321.838 565.5,308.5C 573.853,315.856 582.186,323.189 590.5,330.5 Z"/></g>
<g><path style="opacity:1" fill="#848a8e" d="M 652.5,281.5 C 648.25,285.927 644.083,290.593 640,295.5C 638.059,299.048 636.393,302.714 635,306.5C 633.577,319.674 629.077,331.674 621.5,342.5C 626.754,327.239 631.921,311.905 637,296.5C 640.735,289.931 645.901,284.931 652.5,281.5 Z"/></g>
<g><path style="opacity:1" fill="#828d85" d="M 342.5,309.5 C 344.403,312.53 345.737,315.863 346.5,319.5C 344.206,316.63 342.872,313.297 342.5,309.5 Z"/></g>
<g><path style="opacity:1" fill="#858a8e" d="M 320.5,347.5 C 321.728,348.306 322.728,349.306 323.5,350.5C 323.167,351.5 322.5,352.167 321.5,352.5C 320.549,351.081 320.216,349.415 320.5,347.5 Z"/></g>
<g><path style="opacity:1" fill="#6db1ce" d="M 388.5,370.5 C 404.322,378.911 420.322,387.078 436.5,395C 460.311,401.234 483.977,400.9 507.5,394C 521.86,387.153 536.193,380.32 550.5,373.5C 559.159,380.827 567.493,388.493 575.5,396.5C 562.694,403.738 549.694,410.738 536.5,417.5C 527.964,420.103 519.964,423.77 512.5,428.5C 507.712,429.81 503.212,431.81 499,434.5C 498.667,434.167 498.333,433.833 498,433.5C 491.063,440.012 488.563,448.012 490.5,457.5C 475.167,457.5 459.833,457.5 444.5,457.5C 445.379,450.091 444.212,443.091 441,436.5C 436.029,433.602 430.529,430.936 424.5,428.5C 414.687,422.826 404.354,417.993 393.5,414C 382.67,407.978 372.003,401.811 361.5,395.5C 369.592,386.07 378.592,377.737 388.5,370.5 Z" data-terrain="water"/></g>
<g><path style="opacity:1" fill="#858b8e" d="M 359.5,396.5 C 359.842,395.662 360.508,395.328 361.5,395.5C 372.003,401.811 382.67,407.978 393.5,414C 404.354,417.993 414.687,422.826 424.5,428.5C 420.818,428.665 417.152,428.499 413.5,428C 395.308,417.741 377.308,407.241 359.5,396.5 Z"/></g>
<g><path style="opacity:1" fill="#80858a" d="M 536.5,417.5 C 530.399,420.721 524.399,424.221 518.5,428C 516.527,428.495 514.527,428.662 512.5,428.5C 519.964,423.77 527.964,420.103 536.5,417.5 Z"/></g>
<g><path style="opacity:1" fill="#a0734b" d="M 444.5,457.5 C 459.833,457.5 475.167,457.5 490.5,457.5C 499.167,457.5 507.833,457.5 516.5,457.5C 516.5,476.833 516.5,496.167 516.5,515.5C 507.833,515.5 499.167,515.5 490.5,515.5C 475.167,515.5 459.833,515.5 444.5,515.5C 434.167,515.5 423.833,515.5 413.5,515.5C 413.5,496.167 413.5,476.833 413.5,457.5C 423.833,457.5 434.167,457.5 444.5,457.5 Z"/></g>
<g><path style="opacity:1" fill="#6eb0cd" d="M 444.5,515.5 C 459.833,515.5 475.167,515.5 490.5,515.5C 490.5,517.5 490.5,519.5 490.5,521.5C 476.833,521.5 463.167,521.5 449.5,521.5C 448.395,519.777 446.728,518.777 444.5,518.5C 444.5,517.5 444.5,516.5 444.5,515.5 Z" data-terrain="water"/></g>
<g><path style="opacity:1" fill="#828987" d="M 444.5,518.5 C 446.728,518.777 448.395,519.777 449.5,521.5C 447.833,521.5 446.167,521.5 444.5,521.5C 444.5,520.5 444.5,519.5 444.5,518.5 Z"/></g>
<rect id="bridge-0"
      x="53.0" y="234.0"
      width="103.0" height="57.0"
      transform="rotate(90 104.5 262.5)" />

<rect id="bridge-1"
      x="294.47" y="138.86"
      width="103.32" height="57.82"
      transform="rotate(42.71 346.13 167.77)" />

<rect id="bridge-2"
      x="325.98" y="310.31"
      width="58.68"  height="103.37"
      transform="rotate(46.97 354.32 361.17)" />

<rect id="bridge-3"
      x="436.5" y="435.5"
      width="57.0"  height="102.0"
      transform="rotate(90 465.0 486.5)" />

<rect id="bridge-4"
      x="531.82" y="335.19"
      width="103.32" height="57.63"
      transform="rotate(42.88 583.65 363.99)" />

<rect id="bridge-5"
      x="560.48" y="112.69"
      width="57.66"  height="103.36"
      transform="rotate(47.02 589.32 164.36)" />

<rect id="bridge-6"
      x="757.0" y="234.0"
      width="103.0" height="57.0"
      transform="rotate(90 808.5 262.5)" />

</svg>
